G04 #@! TF.GenerationSoftware,KiCad,Pcbnew,8.0.4*
G04 #@! TF.CreationDate,2025-02-12T17:32:25+01:00*
G04 #@! TF.ProjectId,Pfeil,50666569-6c2e-46b6-9963-61645f706362,rev?*
G04 #@! TF.SameCoordinates,Original*
G04 #@! TF.FileFunction,Soldermask,Bot*
G04 #@! TF.FilePolarity,Negative*
%FSLAX46Y46*%
G04 Gerber Fmt 4.6, Leading zero omitted, Abs format (unit mm)*
G04 Created by KiCad (PCBNEW 8.0.4) date 2025-02-12 17:32:25*
%MOMM*%
%LPD*%
G01*
G04 APERTURE LIST*
G04 APERTURE END LIST*
G36*
X155199268Y-59402612D02*
G01*
X155231711Y-59424289D01*
X155253388Y-59456732D01*
X155261000Y-59495000D01*
X155261000Y-59695000D01*
X155253388Y-59733268D01*
X155231711Y-59765711D01*
X155199268Y-59787388D01*
X155161000Y-59795000D01*
X154901000Y-59795000D01*
X154862732Y-59787388D01*
X154830289Y-59765711D01*
X154808612Y-59733268D01*
X154801000Y-59695000D01*
X154801000Y-59495000D01*
X154808612Y-59456732D01*
X154830289Y-59424289D01*
X154862732Y-59402612D01*
X154901000Y-59395000D01*
X155161000Y-59395000D01*
X155199268Y-59402612D01*
G37*
G36*
X155839268Y-59402612D02*
G01*
X155871711Y-59424289D01*
X155893388Y-59456732D01*
X155901000Y-59495000D01*
X155901000Y-59695000D01*
X155893388Y-59733268D01*
X155871711Y-59765711D01*
X155839268Y-59787388D01*
X155801000Y-59795000D01*
X155541000Y-59795000D01*
X155502732Y-59787388D01*
X155470289Y-59765711D01*
X155448612Y-59733268D01*
X155441000Y-59695000D01*
X155441000Y-59495000D01*
X155448612Y-59456732D01*
X155470289Y-59424289D01*
X155502732Y-59402612D01*
X155541000Y-59395000D01*
X155801000Y-59395000D01*
X155839268Y-59402612D01*
G37*
G36*
X153684268Y-59397612D02*
G01*
X153716711Y-59419289D01*
X153738388Y-59451732D01*
X153746000Y-59490000D01*
X153746000Y-59690000D01*
X153738388Y-59728268D01*
X153716711Y-59760711D01*
X153684268Y-59782388D01*
X153646000Y-59790000D01*
X153386000Y-59790000D01*
X153347732Y-59782388D01*
X153315289Y-59760711D01*
X153293612Y-59728268D01*
X153286000Y-59690000D01*
X153286000Y-59490000D01*
X153293612Y-59451732D01*
X153315289Y-59419289D01*
X153347732Y-59397612D01*
X153386000Y-59390000D01*
X153646000Y-59390000D01*
X153684268Y-59397612D01*
G37*
G36*
X154324268Y-59397612D02*
G01*
X154356711Y-59419289D01*
X154378388Y-59451732D01*
X154386000Y-59490000D01*
X154386000Y-59690000D01*
X154378388Y-59728268D01*
X154356711Y-59760711D01*
X154324268Y-59782388D01*
X154286000Y-59790000D01*
X154026000Y-59790000D01*
X153987732Y-59782388D01*
X153955289Y-59760711D01*
X153933612Y-59728268D01*
X153926000Y-59690000D01*
X153926000Y-59490000D01*
X153933612Y-59451732D01*
X153955289Y-59419289D01*
X153987732Y-59397612D01*
X154026000Y-59390000D01*
X154286000Y-59390000D01*
X154324268Y-59397612D01*
G37*
G36*
X159918969Y-58649741D02*
G01*
X159954489Y-58649741D01*
X159983362Y-58658219D01*
X160012079Y-58662000D01*
X160050653Y-58677977D01*
X160089755Y-58689459D01*
X160110392Y-58702721D01*
X160131431Y-58711436D01*
X160169978Y-58741015D01*
X160208353Y-58765677D01*
X160220726Y-58779956D01*
X160233919Y-58790080D01*
X160268131Y-58834665D01*
X160300673Y-58872221D01*
X160306147Y-58884208D01*
X160312563Y-58892569D01*
X160337889Y-58953713D01*
X160359237Y-59000458D01*
X160360292Y-59007800D01*
X160361999Y-59011920D01*
X160374103Y-59103854D01*
X160379300Y-59140000D01*
X160374102Y-59176148D01*
X160361999Y-59268079D01*
X160360292Y-59272197D01*
X160359237Y-59279542D01*
X160337887Y-59326291D01*
X160312563Y-59387431D01*
X160306147Y-59395791D01*
X160300673Y-59407779D01*
X160268127Y-59445339D01*
X160233919Y-59489919D01*
X160220728Y-59500040D01*
X160208353Y-59514323D01*
X160169970Y-59538990D01*
X160131431Y-59568563D01*
X160110396Y-59577275D01*
X160089755Y-59590541D01*
X160050645Y-59602024D01*
X160012079Y-59617999D01*
X159983369Y-59621778D01*
X159954489Y-59630259D01*
X159918961Y-59630259D01*
X159884000Y-59634862D01*
X159849039Y-59630259D01*
X159813511Y-59630259D01*
X159784631Y-59621779D01*
X159755920Y-59617999D01*
X159717351Y-59602023D01*
X159678245Y-59590541D01*
X159657605Y-59577276D01*
X159636568Y-59568563D01*
X159598023Y-59538986D01*
X159559647Y-59514323D01*
X159547273Y-59500042D01*
X159534080Y-59489919D01*
X159499863Y-59445328D01*
X159467327Y-59407779D01*
X159461854Y-59395794D01*
X159455436Y-59387431D01*
X159430101Y-59326267D01*
X159408763Y-59279542D01*
X159407707Y-59272201D01*
X159406000Y-59268079D01*
X159393885Y-59176066D01*
X159388700Y-59140000D01*
X159393885Y-59103936D01*
X159406000Y-59011920D01*
X159407707Y-59007796D01*
X159408763Y-59000458D01*
X159430099Y-58953737D01*
X159455436Y-58892569D01*
X159461854Y-58884204D01*
X159467327Y-58872221D01*
X159499860Y-58834675D01*
X159534080Y-58790080D01*
X159547275Y-58779954D01*
X159559647Y-58765677D01*
X159598019Y-58741016D01*
X159636569Y-58711436D01*
X159657608Y-58702721D01*
X159678245Y-58689459D01*
X159717344Y-58677978D01*
X159755920Y-58662000D01*
X159784637Y-58658219D01*
X159813511Y-58649741D01*
X159849031Y-58649741D01*
X159884000Y-58645137D01*
X159918969Y-58649741D01*
G37*
G36*
X161950969Y-58649741D02*
G01*
X161986489Y-58649741D01*
X162015362Y-58658219D01*
X162044079Y-58662000D01*
X162082653Y-58677977D01*
X162121755Y-58689459D01*
X162142392Y-58702721D01*
X162163431Y-58711436D01*
X162201978Y-58741015D01*
X162240353Y-58765677D01*
X162252726Y-58779956D01*
X162265919Y-58790080D01*
X162300131Y-58834665D01*
X162332673Y-58872221D01*
X162338147Y-58884208D01*
X162344563Y-58892569D01*
X162369889Y-58953713D01*
X162391237Y-59000458D01*
X162392292Y-59007800D01*
X162393999Y-59011920D01*
X162406103Y-59103854D01*
X162411300Y-59140000D01*
X162406102Y-59176148D01*
X162393999Y-59268079D01*
X162392292Y-59272197D01*
X162391237Y-59279542D01*
X162369887Y-59326291D01*
X162344563Y-59387431D01*
X162338147Y-59395791D01*
X162332673Y-59407779D01*
X162300127Y-59445339D01*
X162265919Y-59489919D01*
X162252728Y-59500040D01*
X162240353Y-59514323D01*
X162201970Y-59538990D01*
X162163431Y-59568563D01*
X162142396Y-59577275D01*
X162121755Y-59590541D01*
X162082645Y-59602024D01*
X162044079Y-59617999D01*
X162015369Y-59621778D01*
X161986489Y-59630259D01*
X161950961Y-59630259D01*
X161916000Y-59634862D01*
X161881039Y-59630259D01*
X161845511Y-59630259D01*
X161816631Y-59621779D01*
X161787920Y-59617999D01*
X161749351Y-59602023D01*
X161710245Y-59590541D01*
X161689605Y-59577276D01*
X161668568Y-59568563D01*
X161630023Y-59538986D01*
X161591647Y-59514323D01*
X161579273Y-59500042D01*
X161566080Y-59489919D01*
X161531863Y-59445328D01*
X161499327Y-59407779D01*
X161493854Y-59395794D01*
X161487436Y-59387431D01*
X161462101Y-59326267D01*
X161440763Y-59279542D01*
X161439707Y-59272201D01*
X161438000Y-59268079D01*
X161425885Y-59176066D01*
X161420700Y-59140000D01*
X161425885Y-59103936D01*
X161438000Y-59011920D01*
X161439707Y-59007796D01*
X161440763Y-59000458D01*
X161462099Y-58953737D01*
X161487436Y-58892569D01*
X161493854Y-58884204D01*
X161499327Y-58872221D01*
X161531860Y-58834675D01*
X161566080Y-58790080D01*
X161579275Y-58779954D01*
X161591647Y-58765677D01*
X161630019Y-58741016D01*
X161668569Y-58711436D01*
X161689608Y-58702721D01*
X161710245Y-58689459D01*
X161749344Y-58677978D01*
X161787920Y-58662000D01*
X161816637Y-58658219D01*
X161845511Y-58649741D01*
X161881031Y-58649741D01*
X161916000Y-58645137D01*
X161950969Y-58649741D01*
G37*
G36*
X169328268Y-59119612D02*
G01*
X169360711Y-59141289D01*
X169382388Y-59173732D01*
X169390000Y-59212000D01*
X169390000Y-59412000D01*
X169382388Y-59450268D01*
X169360711Y-59482711D01*
X169328268Y-59504388D01*
X169290000Y-59512000D01*
X169030000Y-59512000D01*
X168991732Y-59504388D01*
X168959289Y-59482711D01*
X168937612Y-59450268D01*
X168930000Y-59412000D01*
X168930000Y-59212000D01*
X168937612Y-59173732D01*
X168959289Y-59141289D01*
X168991732Y-59119612D01*
X169030000Y-59112000D01*
X169290000Y-59112000D01*
X169328268Y-59119612D01*
G37*
G36*
X169968268Y-59119612D02*
G01*
X170000711Y-59141289D01*
X170022388Y-59173732D01*
X170030000Y-59212000D01*
X170030000Y-59412000D01*
X170022388Y-59450268D01*
X170000711Y-59482711D01*
X169968268Y-59504388D01*
X169930000Y-59512000D01*
X169670000Y-59512000D01*
X169631732Y-59504388D01*
X169599289Y-59482711D01*
X169577612Y-59450268D01*
X169570000Y-59412000D01*
X169570000Y-59212000D01*
X169577612Y-59173732D01*
X169599289Y-59141289D01*
X169631732Y-59119612D01*
X169670000Y-59112000D01*
X169930000Y-59112000D01*
X169968268Y-59119612D01*
G37*
G36*
X156899268Y-58875112D02*
G01*
X156931711Y-58896789D01*
X156953388Y-58929232D01*
X156961000Y-58967500D01*
X156961000Y-59167500D01*
X156953388Y-59205768D01*
X156931711Y-59238211D01*
X156899268Y-59259888D01*
X156861000Y-59267500D01*
X156601000Y-59267500D01*
X156562732Y-59259888D01*
X156530289Y-59238211D01*
X156508612Y-59205768D01*
X156501000Y-59167500D01*
X156501000Y-58967500D01*
X156508612Y-58929232D01*
X156530289Y-58896789D01*
X156562732Y-58875112D01*
X156601000Y-58867500D01*
X156861000Y-58867500D01*
X156899268Y-58875112D01*
G37*
G36*
X157539268Y-58875112D02*
G01*
X157571711Y-58896789D01*
X157593388Y-58929232D01*
X157601000Y-58967500D01*
X157601000Y-59167500D01*
X157593388Y-59205768D01*
X157571711Y-59238211D01*
X157539268Y-59259888D01*
X157501000Y-59267500D01*
X157241000Y-59267500D01*
X157202732Y-59259888D01*
X157170289Y-59238211D01*
X157148612Y-59205768D01*
X157141000Y-59167500D01*
X157141000Y-58967500D01*
X157148612Y-58929232D01*
X157170289Y-58896789D01*
X157202732Y-58875112D01*
X157241000Y-58867500D01*
X157501000Y-58867500D01*
X157539268Y-58875112D01*
G37*
G36*
X151099268Y-58472612D02*
G01*
X151131711Y-58494289D01*
X151153388Y-58526732D01*
X151161000Y-58565000D01*
X151161000Y-58765000D01*
X151153388Y-58803268D01*
X151131711Y-58835711D01*
X151099268Y-58857388D01*
X151061000Y-58865000D01*
X150801000Y-58865000D01*
X150762732Y-58857388D01*
X150730289Y-58835711D01*
X150708612Y-58803268D01*
X150701000Y-58765000D01*
X150701000Y-58565000D01*
X150708612Y-58526732D01*
X150730289Y-58494289D01*
X150762732Y-58472612D01*
X150801000Y-58465000D01*
X151061000Y-58465000D01*
X151099268Y-58472612D01*
G37*
G36*
X151739268Y-58472612D02*
G01*
X151771711Y-58494289D01*
X151793388Y-58526732D01*
X151801000Y-58565000D01*
X151801000Y-58765000D01*
X151793388Y-58803268D01*
X151771711Y-58835711D01*
X151739268Y-58857388D01*
X151701000Y-58865000D01*
X151441000Y-58865000D01*
X151402732Y-58857388D01*
X151370289Y-58835711D01*
X151348612Y-58803268D01*
X151341000Y-58765000D01*
X151341000Y-58565000D01*
X151348612Y-58526732D01*
X151370289Y-58494289D01*
X151402732Y-58472612D01*
X151441000Y-58465000D01*
X151701000Y-58465000D01*
X151739268Y-58472612D01*
G37*
G36*
X152952835Y-58312015D02*
G01*
X152993388Y-58339112D01*
X153020485Y-58379665D01*
X153030000Y-58427500D01*
X153020485Y-58475335D01*
X152993388Y-58515888D01*
X152952835Y-58542985D01*
X152905000Y-58552500D01*
X152857165Y-58542985D01*
X152816612Y-58515888D01*
X152789515Y-58475335D01*
X152780000Y-58427500D01*
X152789515Y-58379665D01*
X152816612Y-58339112D01*
X152857165Y-58312015D01*
X152905000Y-58302500D01*
X152952835Y-58312015D01*
G37*
G36*
X153371835Y-58312015D02*
G01*
X153412388Y-58339112D01*
X153439485Y-58379665D01*
X153449000Y-58427500D01*
X153439485Y-58475335D01*
X153412388Y-58515888D01*
X153371835Y-58542985D01*
X153324000Y-58552500D01*
X153276165Y-58542985D01*
X153235612Y-58515888D01*
X153208515Y-58475335D01*
X153199000Y-58427500D01*
X153208515Y-58379665D01*
X153235612Y-58339112D01*
X153276165Y-58312015D01*
X153324000Y-58302500D01*
X153371835Y-58312015D01*
G37*
G36*
X153790835Y-58312015D02*
G01*
X153831388Y-58339112D01*
X153858485Y-58379665D01*
X153868000Y-58427500D01*
X153858485Y-58475335D01*
X153831388Y-58515888D01*
X153790835Y-58542985D01*
X153743000Y-58552500D01*
X153695165Y-58542985D01*
X153654612Y-58515888D01*
X153627515Y-58475335D01*
X153618000Y-58427500D01*
X153627515Y-58379665D01*
X153654612Y-58339112D01*
X153695165Y-58312015D01*
X153743000Y-58302500D01*
X153790835Y-58312015D01*
G37*
G36*
X154209835Y-58312015D02*
G01*
X154250388Y-58339112D01*
X154277485Y-58379665D01*
X154287000Y-58427500D01*
X154277485Y-58475335D01*
X154250388Y-58515888D01*
X154209835Y-58542985D01*
X154162000Y-58552500D01*
X154114165Y-58542985D01*
X154073612Y-58515888D01*
X154046515Y-58475335D01*
X154037000Y-58427500D01*
X154046515Y-58379665D01*
X154073612Y-58339112D01*
X154114165Y-58312015D01*
X154162000Y-58302500D01*
X154209835Y-58312015D01*
G37*
G36*
X154628835Y-58312015D02*
G01*
X154669388Y-58339112D01*
X154696485Y-58379665D01*
X154706000Y-58427500D01*
X154696485Y-58475335D01*
X154669388Y-58515888D01*
X154628835Y-58542985D01*
X154581000Y-58552500D01*
X154533165Y-58542985D01*
X154492612Y-58515888D01*
X154465515Y-58475335D01*
X154456000Y-58427500D01*
X154465515Y-58379665D01*
X154492612Y-58339112D01*
X154533165Y-58312015D01*
X154581000Y-58302500D01*
X154628835Y-58312015D01*
G37*
G36*
X155047835Y-58312015D02*
G01*
X155088388Y-58339112D01*
X155115485Y-58379665D01*
X155125000Y-58427500D01*
X155115485Y-58475335D01*
X155088388Y-58515888D01*
X155047835Y-58542985D01*
X155000000Y-58552500D01*
X154952165Y-58542985D01*
X154911612Y-58515888D01*
X154884515Y-58475335D01*
X154875000Y-58427500D01*
X154884515Y-58379665D01*
X154911612Y-58339112D01*
X154952165Y-58312015D01*
X155000000Y-58302500D01*
X155047835Y-58312015D01*
G37*
G36*
X155466835Y-58312015D02*
G01*
X155507388Y-58339112D01*
X155534485Y-58379665D01*
X155544000Y-58427500D01*
X155534485Y-58475335D01*
X155507388Y-58515888D01*
X155466835Y-58542985D01*
X155419000Y-58552500D01*
X155371165Y-58542985D01*
X155330612Y-58515888D01*
X155303515Y-58475335D01*
X155294000Y-58427500D01*
X155303515Y-58379665D01*
X155330612Y-58339112D01*
X155371165Y-58312015D01*
X155419000Y-58302500D01*
X155466835Y-58312015D01*
G37*
G36*
X152952835Y-57872015D02*
G01*
X152993388Y-57899112D01*
X153020485Y-57939665D01*
X153030000Y-57987500D01*
X153020485Y-58035335D01*
X152993388Y-58075888D01*
X152952835Y-58102985D01*
X152905000Y-58112500D01*
X152857165Y-58102985D01*
X152816612Y-58075888D01*
X152789515Y-58035335D01*
X152780000Y-57987500D01*
X152789515Y-57939665D01*
X152816612Y-57899112D01*
X152857165Y-57872015D01*
X152905000Y-57862500D01*
X152952835Y-57872015D01*
G37*
G36*
X153371835Y-57872015D02*
G01*
X153412388Y-57899112D01*
X153439485Y-57939665D01*
X153449000Y-57987500D01*
X153439485Y-58035335D01*
X153412388Y-58075888D01*
X153371835Y-58102985D01*
X153324000Y-58112500D01*
X153276165Y-58102985D01*
X153235612Y-58075888D01*
X153208515Y-58035335D01*
X153199000Y-57987500D01*
X153208515Y-57939665D01*
X153235612Y-57899112D01*
X153276165Y-57872015D01*
X153324000Y-57862500D01*
X153371835Y-57872015D01*
G37*
G36*
X153790835Y-57872015D02*
G01*
X153831388Y-57899112D01*
X153858485Y-57939665D01*
X153868000Y-57987500D01*
X153858485Y-58035335D01*
X153831388Y-58075888D01*
X153790835Y-58102985D01*
X153743000Y-58112500D01*
X153695165Y-58102985D01*
X153654612Y-58075888D01*
X153627515Y-58035335D01*
X153618000Y-57987500D01*
X153627515Y-57939665D01*
X153654612Y-57899112D01*
X153695165Y-57872015D01*
X153743000Y-57862500D01*
X153790835Y-57872015D01*
G37*
G36*
X154209835Y-57872015D02*
G01*
X154250388Y-57899112D01*
X154277485Y-57939665D01*
X154287000Y-57987500D01*
X154277485Y-58035335D01*
X154250388Y-58075888D01*
X154209835Y-58102985D01*
X154162000Y-58112500D01*
X154114165Y-58102985D01*
X154073612Y-58075888D01*
X154046515Y-58035335D01*
X154037000Y-57987500D01*
X154046515Y-57939665D01*
X154073612Y-57899112D01*
X154114165Y-57872015D01*
X154162000Y-57862500D01*
X154209835Y-57872015D01*
G37*
G36*
X154628835Y-57872015D02*
G01*
X154669388Y-57899112D01*
X154696485Y-57939665D01*
X154706000Y-57987500D01*
X154696485Y-58035335D01*
X154669388Y-58075888D01*
X154628835Y-58102985D01*
X154581000Y-58112500D01*
X154533165Y-58102985D01*
X154492612Y-58075888D01*
X154465515Y-58035335D01*
X154456000Y-57987500D01*
X154465515Y-57939665D01*
X154492612Y-57899112D01*
X154533165Y-57872015D01*
X154581000Y-57862500D01*
X154628835Y-57872015D01*
G37*
G36*
X155047835Y-57872015D02*
G01*
X155088388Y-57899112D01*
X155115485Y-57939665D01*
X155125000Y-57987500D01*
X155115485Y-58035335D01*
X155088388Y-58075888D01*
X155047835Y-58102985D01*
X155000000Y-58112500D01*
X154952165Y-58102985D01*
X154911612Y-58075888D01*
X154884515Y-58035335D01*
X154875000Y-57987500D01*
X154884515Y-57939665D01*
X154911612Y-57899112D01*
X154952165Y-57872015D01*
X155000000Y-57862500D01*
X155047835Y-57872015D01*
G37*
G36*
X155466835Y-57872015D02*
G01*
X155507388Y-57899112D01*
X155534485Y-57939665D01*
X155544000Y-57987500D01*
X155534485Y-58035335D01*
X155507388Y-58075888D01*
X155466835Y-58102985D01*
X155419000Y-58112500D01*
X155371165Y-58102985D01*
X155330612Y-58075888D01*
X155303515Y-58035335D01*
X155294000Y-57987500D01*
X155303515Y-57939665D01*
X155330612Y-57899112D01*
X155371165Y-57872015D01*
X155419000Y-57862500D01*
X155466835Y-57872015D01*
G37*
G36*
X168175000Y-57899500D02*
G01*
X167825000Y-57899500D01*
X167825000Y-57324500D01*
X168175000Y-57324500D01*
X168175000Y-57899500D01*
G37*
G36*
X168675000Y-57899500D02*
G01*
X168325000Y-57899500D01*
X168325000Y-57324500D01*
X168675000Y-57324500D01*
X168675000Y-57899500D01*
G37*
G36*
X169175000Y-57899500D02*
G01*
X168825000Y-57899500D01*
X168825000Y-57324500D01*
X169175000Y-57324500D01*
X169175000Y-57899500D01*
G37*
G36*
X174450000Y-57865000D02*
G01*
X171950000Y-57865000D01*
X171950000Y-55365000D01*
X174450000Y-55365000D01*
X174450000Y-57865000D01*
G37*
G36*
X164948268Y-57419612D02*
G01*
X164980711Y-57441289D01*
X165002388Y-57473732D01*
X165010000Y-57512000D01*
X165010000Y-57712000D01*
X165002388Y-57750268D01*
X164980711Y-57782711D01*
X164948268Y-57804388D01*
X164910000Y-57812000D01*
X164650000Y-57812000D01*
X164611732Y-57804388D01*
X164579289Y-57782711D01*
X164557612Y-57750268D01*
X164550000Y-57712000D01*
X164550000Y-57512000D01*
X164557612Y-57473732D01*
X164579289Y-57441289D01*
X164611732Y-57419612D01*
X164650000Y-57412000D01*
X164910000Y-57412000D01*
X164948268Y-57419612D01*
G37*
G36*
X165588268Y-57419612D02*
G01*
X165620711Y-57441289D01*
X165642388Y-57473732D01*
X165650000Y-57512000D01*
X165650000Y-57712000D01*
X165642388Y-57750268D01*
X165620711Y-57782711D01*
X165588268Y-57804388D01*
X165550000Y-57812000D01*
X165290000Y-57812000D01*
X165251732Y-57804388D01*
X165219289Y-57782711D01*
X165197612Y-57750268D01*
X165190000Y-57712000D01*
X165190000Y-57512000D01*
X165197612Y-57473732D01*
X165219289Y-57441289D01*
X165251732Y-57419612D01*
X165290000Y-57412000D01*
X165550000Y-57412000D01*
X165588268Y-57419612D01*
G37*
G36*
X156868576Y-57185657D02*
G01*
X156913995Y-57216005D01*
X156944343Y-57261424D01*
X156955000Y-57315000D01*
X156955000Y-57655000D01*
X156944343Y-57708576D01*
X156913995Y-57753995D01*
X156868576Y-57784343D01*
X156815000Y-57795000D01*
X156535000Y-57795000D01*
X156481424Y-57784343D01*
X156436005Y-57753995D01*
X156405657Y-57708576D01*
X156395000Y-57655000D01*
X156395000Y-57315000D01*
X156405657Y-57261424D01*
X156436005Y-57216005D01*
X156481424Y-57185657D01*
X156535000Y-57175000D01*
X156815000Y-57175000D01*
X156868576Y-57185657D01*
G37*
G36*
X157828576Y-57185657D02*
G01*
X157873995Y-57216005D01*
X157904343Y-57261424D01*
X157915000Y-57315000D01*
X157915000Y-57655000D01*
X157904343Y-57708576D01*
X157873995Y-57753995D01*
X157828576Y-57784343D01*
X157775000Y-57795000D01*
X157495000Y-57795000D01*
X157441424Y-57784343D01*
X157396005Y-57753995D01*
X157365657Y-57708576D01*
X157355000Y-57655000D01*
X157355000Y-57315000D01*
X157365657Y-57261424D01*
X157396005Y-57216005D01*
X157441424Y-57185657D01*
X157495000Y-57175000D01*
X157775000Y-57175000D01*
X157828576Y-57185657D01*
G37*
G36*
X152952835Y-57432015D02*
G01*
X152993388Y-57459112D01*
X153020485Y-57499665D01*
X153030000Y-57547500D01*
X153020485Y-57595335D01*
X152993388Y-57635888D01*
X152952835Y-57662985D01*
X152905000Y-57672500D01*
X152857165Y-57662985D01*
X152816612Y-57635888D01*
X152789515Y-57595335D01*
X152780000Y-57547500D01*
X152789515Y-57499665D01*
X152816612Y-57459112D01*
X152857165Y-57432015D01*
X152905000Y-57422500D01*
X152952835Y-57432015D01*
G37*
G36*
X153371835Y-57432015D02*
G01*
X153412388Y-57459112D01*
X153439485Y-57499665D01*
X153449000Y-57547500D01*
X153439485Y-57595335D01*
X153412388Y-57635888D01*
X153371835Y-57662985D01*
X153324000Y-57672500D01*
X153276165Y-57662985D01*
X153235612Y-57635888D01*
X153208515Y-57595335D01*
X153199000Y-57547500D01*
X153208515Y-57499665D01*
X153235612Y-57459112D01*
X153276165Y-57432015D01*
X153324000Y-57422500D01*
X153371835Y-57432015D01*
G37*
G36*
X153790835Y-57432015D02*
G01*
X153831388Y-57459112D01*
X153858485Y-57499665D01*
X153868000Y-57547500D01*
X153858485Y-57595335D01*
X153831388Y-57635888D01*
X153790835Y-57662985D01*
X153743000Y-57672500D01*
X153695165Y-57662985D01*
X153654612Y-57635888D01*
X153627515Y-57595335D01*
X153618000Y-57547500D01*
X153627515Y-57499665D01*
X153654612Y-57459112D01*
X153695165Y-57432015D01*
X153743000Y-57422500D01*
X153790835Y-57432015D01*
G37*
G36*
X154209835Y-57432015D02*
G01*
X154250388Y-57459112D01*
X154277485Y-57499665D01*
X154287000Y-57547500D01*
X154277485Y-57595335D01*
X154250388Y-57635888D01*
X154209835Y-57662985D01*
X154162000Y-57672500D01*
X154114165Y-57662985D01*
X154073612Y-57635888D01*
X154046515Y-57595335D01*
X154037000Y-57547500D01*
X154046515Y-57499665D01*
X154073612Y-57459112D01*
X154114165Y-57432015D01*
X154162000Y-57422500D01*
X154209835Y-57432015D01*
G37*
G36*
X154628835Y-57432015D02*
G01*
X154669388Y-57459112D01*
X154696485Y-57499665D01*
X154706000Y-57547500D01*
X154696485Y-57595335D01*
X154669388Y-57635888D01*
X154628835Y-57662985D01*
X154581000Y-57672500D01*
X154533165Y-57662985D01*
X154492612Y-57635888D01*
X154465515Y-57595335D01*
X154456000Y-57547500D01*
X154465515Y-57499665D01*
X154492612Y-57459112D01*
X154533165Y-57432015D01*
X154581000Y-57422500D01*
X154628835Y-57432015D01*
G37*
G36*
X155047835Y-57432015D02*
G01*
X155088388Y-57459112D01*
X155115485Y-57499665D01*
X155125000Y-57547500D01*
X155115485Y-57595335D01*
X155088388Y-57635888D01*
X155047835Y-57662985D01*
X155000000Y-57672500D01*
X154952165Y-57662985D01*
X154911612Y-57635888D01*
X154884515Y-57595335D01*
X154875000Y-57547500D01*
X154884515Y-57499665D01*
X154911612Y-57459112D01*
X154952165Y-57432015D01*
X155000000Y-57422500D01*
X155047835Y-57432015D01*
G37*
G36*
X155466835Y-57432015D02*
G01*
X155507388Y-57459112D01*
X155534485Y-57499665D01*
X155544000Y-57547500D01*
X155534485Y-57595335D01*
X155507388Y-57635888D01*
X155466835Y-57662985D01*
X155419000Y-57672500D01*
X155371165Y-57662985D01*
X155330612Y-57635888D01*
X155303515Y-57595335D01*
X155294000Y-57547500D01*
X155303515Y-57499665D01*
X155330612Y-57459112D01*
X155371165Y-57432015D01*
X155419000Y-57422500D01*
X155466835Y-57432015D01*
G37*
G36*
X167624500Y-57625000D02*
G01*
X167049500Y-57625000D01*
X167049500Y-57275000D01*
X167624500Y-57275000D01*
X167624500Y-57625000D01*
G37*
G36*
X169950500Y-57625000D02*
G01*
X169375500Y-57625000D01*
X169375500Y-57275000D01*
X169950500Y-57275000D01*
X169950500Y-57625000D01*
G37*
G36*
X150918576Y-56960657D02*
G01*
X150963995Y-56991005D01*
X150994343Y-57036424D01*
X151005000Y-57090000D01*
X151005000Y-57430000D01*
X150994343Y-57483576D01*
X150963995Y-57528995D01*
X150918576Y-57559343D01*
X150865000Y-57570000D01*
X150585000Y-57570000D01*
X150531424Y-57559343D01*
X150486005Y-57528995D01*
X150455657Y-57483576D01*
X150445000Y-57430000D01*
X150445000Y-57090000D01*
X150455657Y-57036424D01*
X150486005Y-56991005D01*
X150531424Y-56960657D01*
X150585000Y-56950000D01*
X150865000Y-56950000D01*
X150918576Y-56960657D01*
G37*
G36*
X151878576Y-56960657D02*
G01*
X151923995Y-56991005D01*
X151954343Y-57036424D01*
X151965000Y-57090000D01*
X151965000Y-57430000D01*
X151954343Y-57483576D01*
X151923995Y-57528995D01*
X151878576Y-57559343D01*
X151825000Y-57570000D01*
X151545000Y-57570000D01*
X151491424Y-57559343D01*
X151446005Y-57528995D01*
X151415657Y-57483576D01*
X151405000Y-57430000D01*
X151405000Y-57090000D01*
X151415657Y-57036424D01*
X151446005Y-56991005D01*
X151491424Y-56960657D01*
X151545000Y-56950000D01*
X151825000Y-56950000D01*
X151878576Y-56960657D01*
G37*
G36*
X152952835Y-56992015D02*
G01*
X152993388Y-57019112D01*
X153020485Y-57059665D01*
X153030000Y-57107500D01*
X153020485Y-57155335D01*
X152993388Y-57195888D01*
X152952835Y-57222985D01*
X152905000Y-57232500D01*
X152857165Y-57222985D01*
X152816612Y-57195888D01*
X152789515Y-57155335D01*
X152780000Y-57107500D01*
X152789515Y-57059665D01*
X152816612Y-57019112D01*
X152857165Y-56992015D01*
X152905000Y-56982500D01*
X152952835Y-56992015D01*
G37*
G36*
X153371835Y-56992015D02*
G01*
X153412388Y-57019112D01*
X153439485Y-57059665D01*
X153449000Y-57107500D01*
X153439485Y-57155335D01*
X153412388Y-57195888D01*
X153371835Y-57222985D01*
X153324000Y-57232500D01*
X153276165Y-57222985D01*
X153235612Y-57195888D01*
X153208515Y-57155335D01*
X153199000Y-57107500D01*
X153208515Y-57059665D01*
X153235612Y-57019112D01*
X153276165Y-56992015D01*
X153324000Y-56982500D01*
X153371835Y-56992015D01*
G37*
G36*
X153790835Y-56992015D02*
G01*
X153831388Y-57019112D01*
X153858485Y-57059665D01*
X153868000Y-57107500D01*
X153858485Y-57155335D01*
X153831388Y-57195888D01*
X153790835Y-57222985D01*
X153743000Y-57232500D01*
X153695165Y-57222985D01*
X153654612Y-57195888D01*
X153627515Y-57155335D01*
X153618000Y-57107500D01*
X153627515Y-57059665D01*
X153654612Y-57019112D01*
X153695165Y-56992015D01*
X153743000Y-56982500D01*
X153790835Y-56992015D01*
G37*
G36*
X154209835Y-56992015D02*
G01*
X154250388Y-57019112D01*
X154277485Y-57059665D01*
X154287000Y-57107500D01*
X154277485Y-57155335D01*
X154250388Y-57195888D01*
X154209835Y-57222985D01*
X154162000Y-57232500D01*
X154114165Y-57222985D01*
X154073612Y-57195888D01*
X154046515Y-57155335D01*
X154037000Y-57107500D01*
X154046515Y-57059665D01*
X154073612Y-57019112D01*
X154114165Y-56992015D01*
X154162000Y-56982500D01*
X154209835Y-56992015D01*
G37*
G36*
X154628835Y-56992015D02*
G01*
X154669388Y-57019112D01*
X154696485Y-57059665D01*
X154706000Y-57107500D01*
X154696485Y-57155335D01*
X154669388Y-57195888D01*
X154628835Y-57222985D01*
X154581000Y-57232500D01*
X154533165Y-57222985D01*
X154492612Y-57195888D01*
X154465515Y-57155335D01*
X154456000Y-57107500D01*
X154465515Y-57059665D01*
X154492612Y-57019112D01*
X154533165Y-56992015D01*
X154581000Y-56982500D01*
X154628835Y-56992015D01*
G37*
G36*
X155047835Y-56992015D02*
G01*
X155088388Y-57019112D01*
X155115485Y-57059665D01*
X155125000Y-57107500D01*
X155115485Y-57155335D01*
X155088388Y-57195888D01*
X155047835Y-57222985D01*
X155000000Y-57232500D01*
X154952165Y-57222985D01*
X154911612Y-57195888D01*
X154884515Y-57155335D01*
X154875000Y-57107500D01*
X154884515Y-57059665D01*
X154911612Y-57019112D01*
X154952165Y-56992015D01*
X155000000Y-56982500D01*
X155047835Y-56992015D01*
G37*
G36*
X155466835Y-56992015D02*
G01*
X155507388Y-57019112D01*
X155534485Y-57059665D01*
X155544000Y-57107500D01*
X155534485Y-57155335D01*
X155507388Y-57195888D01*
X155466835Y-57222985D01*
X155419000Y-57232500D01*
X155371165Y-57222985D01*
X155330612Y-57195888D01*
X155303515Y-57155335D01*
X155294000Y-57107500D01*
X155303515Y-57059665D01*
X155330612Y-57019112D01*
X155371165Y-56992015D01*
X155419000Y-56982500D01*
X155466835Y-56992015D01*
G37*
G36*
X167624500Y-57125000D02*
G01*
X167049500Y-57125000D01*
X167049500Y-56775000D01*
X167624500Y-56775000D01*
X167624500Y-57125000D01*
G37*
G36*
X169950500Y-57125000D02*
G01*
X169375500Y-57125000D01*
X169375500Y-56775000D01*
X169950500Y-56775000D01*
X169950500Y-57125000D01*
G37*
G36*
X164953268Y-56717112D02*
G01*
X164985711Y-56738789D01*
X165007388Y-56771232D01*
X165015000Y-56809500D01*
X165015000Y-57009500D01*
X165007388Y-57047768D01*
X164985711Y-57080211D01*
X164953268Y-57101888D01*
X164915000Y-57109500D01*
X164655000Y-57109500D01*
X164616732Y-57101888D01*
X164584289Y-57080211D01*
X164562612Y-57047768D01*
X164555000Y-57009500D01*
X164555000Y-56809500D01*
X164562612Y-56771232D01*
X164584289Y-56738789D01*
X164616732Y-56717112D01*
X164655000Y-56709500D01*
X164915000Y-56709500D01*
X164953268Y-56717112D01*
G37*
G36*
X165593268Y-56717112D02*
G01*
X165625711Y-56738789D01*
X165647388Y-56771232D01*
X165655000Y-56809500D01*
X165655000Y-57009500D01*
X165647388Y-57047768D01*
X165625711Y-57080211D01*
X165593268Y-57101888D01*
X165555000Y-57109500D01*
X165295000Y-57109500D01*
X165256732Y-57101888D01*
X165224289Y-57080211D01*
X165202612Y-57047768D01*
X165195000Y-57009500D01*
X165195000Y-56809500D01*
X165202612Y-56771232D01*
X165224289Y-56738789D01*
X165256732Y-56717112D01*
X165295000Y-56709500D01*
X165555000Y-56709500D01*
X165593268Y-56717112D01*
G37*
G36*
X156863576Y-56260657D02*
G01*
X156908995Y-56291005D01*
X156939343Y-56336424D01*
X156950000Y-56390000D01*
X156950000Y-56730000D01*
X156939343Y-56783576D01*
X156908995Y-56828995D01*
X156863576Y-56859343D01*
X156810000Y-56870000D01*
X156530000Y-56870000D01*
X156476424Y-56859343D01*
X156431005Y-56828995D01*
X156400657Y-56783576D01*
X156390000Y-56730000D01*
X156390000Y-56390000D01*
X156400657Y-56336424D01*
X156431005Y-56291005D01*
X156476424Y-56260657D01*
X156530000Y-56250000D01*
X156810000Y-56250000D01*
X156863576Y-56260657D01*
G37*
G36*
X157823576Y-56260657D02*
G01*
X157868995Y-56291005D01*
X157899343Y-56336424D01*
X157910000Y-56390000D01*
X157910000Y-56730000D01*
X157899343Y-56783576D01*
X157868995Y-56828995D01*
X157823576Y-56859343D01*
X157770000Y-56870000D01*
X157490000Y-56870000D01*
X157436424Y-56859343D01*
X157391005Y-56828995D01*
X157360657Y-56783576D01*
X157350000Y-56730000D01*
X157350000Y-56390000D01*
X157360657Y-56336424D01*
X157391005Y-56291005D01*
X157436424Y-56260657D01*
X157490000Y-56250000D01*
X157770000Y-56250000D01*
X157823576Y-56260657D01*
G37*
G36*
X152952835Y-56552015D02*
G01*
X152993388Y-56579112D01*
X153020485Y-56619665D01*
X153030000Y-56667500D01*
X153020485Y-56715335D01*
X152993388Y-56755888D01*
X152952835Y-56782985D01*
X152905000Y-56792500D01*
X152857165Y-56782985D01*
X152816612Y-56755888D01*
X152789515Y-56715335D01*
X152780000Y-56667500D01*
X152789515Y-56619665D01*
X152816612Y-56579112D01*
X152857165Y-56552015D01*
X152905000Y-56542500D01*
X152952835Y-56552015D01*
G37*
G36*
X153371835Y-56552015D02*
G01*
X153412388Y-56579112D01*
X153439485Y-56619665D01*
X153449000Y-56667500D01*
X153439485Y-56715335D01*
X153412388Y-56755888D01*
X153371835Y-56782985D01*
X153324000Y-56792500D01*
X153276165Y-56782985D01*
X153235612Y-56755888D01*
X153208515Y-56715335D01*
X153199000Y-56667500D01*
X153208515Y-56619665D01*
X153235612Y-56579112D01*
X153276165Y-56552015D01*
X153324000Y-56542500D01*
X153371835Y-56552015D01*
G37*
G36*
X153790835Y-56552015D02*
G01*
X153831388Y-56579112D01*
X153858485Y-56619665D01*
X153868000Y-56667500D01*
X153858485Y-56715335D01*
X153831388Y-56755888D01*
X153790835Y-56782985D01*
X153743000Y-56792500D01*
X153695165Y-56782985D01*
X153654612Y-56755888D01*
X153627515Y-56715335D01*
X153618000Y-56667500D01*
X153627515Y-56619665D01*
X153654612Y-56579112D01*
X153695165Y-56552015D01*
X153743000Y-56542500D01*
X153790835Y-56552015D01*
G37*
G36*
X154209835Y-56552015D02*
G01*
X154250388Y-56579112D01*
X154277485Y-56619665D01*
X154287000Y-56667500D01*
X154277485Y-56715335D01*
X154250388Y-56755888D01*
X154209835Y-56782985D01*
X154162000Y-56792500D01*
X154114165Y-56782985D01*
X154073612Y-56755888D01*
X154046515Y-56715335D01*
X154037000Y-56667500D01*
X154046515Y-56619665D01*
X154073612Y-56579112D01*
X154114165Y-56552015D01*
X154162000Y-56542500D01*
X154209835Y-56552015D01*
G37*
G36*
X154628835Y-56552015D02*
G01*
X154669388Y-56579112D01*
X154696485Y-56619665D01*
X154706000Y-56667500D01*
X154696485Y-56715335D01*
X154669388Y-56755888D01*
X154628835Y-56782985D01*
X154581000Y-56792500D01*
X154533165Y-56782985D01*
X154492612Y-56755888D01*
X154465515Y-56715335D01*
X154456000Y-56667500D01*
X154465515Y-56619665D01*
X154492612Y-56579112D01*
X154533165Y-56552015D01*
X154581000Y-56542500D01*
X154628835Y-56552015D01*
G37*
G36*
X155047835Y-56552015D02*
G01*
X155088388Y-56579112D01*
X155115485Y-56619665D01*
X155125000Y-56667500D01*
X155115485Y-56715335D01*
X155088388Y-56755888D01*
X155047835Y-56782985D01*
X155000000Y-56792500D01*
X154952165Y-56782985D01*
X154911612Y-56755888D01*
X154884515Y-56715335D01*
X154875000Y-56667500D01*
X154884515Y-56619665D01*
X154911612Y-56579112D01*
X154952165Y-56552015D01*
X155000000Y-56542500D01*
X155047835Y-56552015D01*
G37*
G36*
X155466835Y-56552015D02*
G01*
X155507388Y-56579112D01*
X155534485Y-56619665D01*
X155544000Y-56667500D01*
X155534485Y-56715335D01*
X155507388Y-56755888D01*
X155466835Y-56782985D01*
X155419000Y-56792500D01*
X155371165Y-56782985D01*
X155330612Y-56755888D01*
X155303515Y-56715335D01*
X155294000Y-56667500D01*
X155303515Y-56619665D01*
X155330612Y-56579112D01*
X155371165Y-56552015D01*
X155419000Y-56542500D01*
X155466835Y-56552015D01*
G37*
G36*
X167624500Y-56625000D02*
G01*
X167049500Y-56625000D01*
X167049500Y-56275000D01*
X167624500Y-56275000D01*
X167624500Y-56625000D01*
G37*
G36*
X169950500Y-56625000D02*
G01*
X169375500Y-56625000D01*
X169375500Y-56275000D01*
X169950500Y-56275000D01*
X169950500Y-56625000D01*
G37*
G36*
X164948268Y-56017112D02*
G01*
X164980711Y-56038789D01*
X165002388Y-56071232D01*
X165010000Y-56109500D01*
X165010000Y-56309500D01*
X165002388Y-56347768D01*
X164980711Y-56380211D01*
X164948268Y-56401888D01*
X164910000Y-56409500D01*
X164650000Y-56409500D01*
X164611732Y-56401888D01*
X164579289Y-56380211D01*
X164557612Y-56347768D01*
X164550000Y-56309500D01*
X164550000Y-56109500D01*
X164557612Y-56071232D01*
X164579289Y-56038789D01*
X164611732Y-56017112D01*
X164650000Y-56009500D01*
X164910000Y-56009500D01*
X164948268Y-56017112D01*
G37*
G36*
X165588268Y-56017112D02*
G01*
X165620711Y-56038789D01*
X165642388Y-56071232D01*
X165650000Y-56109500D01*
X165650000Y-56309500D01*
X165642388Y-56347768D01*
X165620711Y-56380211D01*
X165588268Y-56401888D01*
X165550000Y-56409500D01*
X165290000Y-56409500D01*
X165251732Y-56401888D01*
X165219289Y-56380211D01*
X165197612Y-56347768D01*
X165190000Y-56309500D01*
X165190000Y-56109500D01*
X165197612Y-56071232D01*
X165219289Y-56038789D01*
X165251732Y-56017112D01*
X165290000Y-56009500D01*
X165550000Y-56009500D01*
X165588268Y-56017112D01*
G37*
G36*
X167624500Y-56125000D02*
G01*
X167049500Y-56125000D01*
X167049500Y-55775000D01*
X167624500Y-55775000D01*
X167624500Y-56125000D01*
G37*
G36*
X169950500Y-56125000D02*
G01*
X169375500Y-56125000D01*
X169375500Y-55775000D01*
X169950500Y-55775000D01*
X169950500Y-56125000D01*
G37*
G36*
X168175000Y-56075500D02*
G01*
X167825000Y-56075500D01*
X167825000Y-55500500D01*
X168175000Y-55500500D01*
X168175000Y-56075500D01*
G37*
G36*
X168675000Y-56075500D02*
G01*
X168325000Y-56075500D01*
X168325000Y-55500500D01*
X168675000Y-55500500D01*
X168675000Y-56075500D01*
G37*
G36*
X169175000Y-56075500D02*
G01*
X168825000Y-56075500D01*
X168825000Y-55500500D01*
X169175000Y-55500500D01*
X169175000Y-56075500D01*
G37*
G36*
X150703268Y-55522612D02*
G01*
X150735711Y-55544289D01*
X150757388Y-55576732D01*
X150765000Y-55615000D01*
X150765000Y-55875000D01*
X150757388Y-55913268D01*
X150735711Y-55945711D01*
X150703268Y-55967388D01*
X150665000Y-55975000D01*
X150465000Y-55975000D01*
X150426732Y-55967388D01*
X150394289Y-55945711D01*
X150372612Y-55913268D01*
X150365000Y-55875000D01*
X150365000Y-55615000D01*
X150372612Y-55576732D01*
X150394289Y-55544289D01*
X150426732Y-55522612D01*
X150465000Y-55515000D01*
X150665000Y-55515000D01*
X150703268Y-55522612D01*
G37*
G36*
X151733268Y-55522612D02*
G01*
X151765711Y-55544289D01*
X151787388Y-55576732D01*
X151795000Y-55615000D01*
X151795000Y-55875000D01*
X151787388Y-55913268D01*
X151765711Y-55945711D01*
X151733268Y-55967388D01*
X151695000Y-55975000D01*
X151495000Y-55975000D01*
X151456732Y-55967388D01*
X151424289Y-55945711D01*
X151402612Y-55913268D01*
X151395000Y-55875000D01*
X151395000Y-55615000D01*
X151402612Y-55576732D01*
X151424289Y-55544289D01*
X151456732Y-55522612D01*
X151495000Y-55515000D01*
X151695000Y-55515000D01*
X151733268Y-55522612D01*
G37*
G36*
X156868576Y-55320657D02*
G01*
X156913995Y-55351005D01*
X156944343Y-55396424D01*
X156955000Y-55450000D01*
X156955000Y-55790000D01*
X156944343Y-55843576D01*
X156913995Y-55888995D01*
X156868576Y-55919343D01*
X156815000Y-55930000D01*
X156535000Y-55930000D01*
X156481424Y-55919343D01*
X156436005Y-55888995D01*
X156405657Y-55843576D01*
X156395000Y-55790000D01*
X156395000Y-55450000D01*
X156405657Y-55396424D01*
X156436005Y-55351005D01*
X156481424Y-55320657D01*
X156535000Y-55310000D01*
X156815000Y-55310000D01*
X156868576Y-55320657D01*
G37*
G36*
X157828576Y-55320657D02*
G01*
X157873995Y-55351005D01*
X157904343Y-55396424D01*
X157915000Y-55450000D01*
X157915000Y-55790000D01*
X157904343Y-55843576D01*
X157873995Y-55888995D01*
X157828576Y-55919343D01*
X157775000Y-55930000D01*
X157495000Y-55930000D01*
X157441424Y-55919343D01*
X157396005Y-55888995D01*
X157365657Y-55843576D01*
X157355000Y-55790000D01*
X157355000Y-55450000D01*
X157365657Y-55396424D01*
X157396005Y-55351005D01*
X157441424Y-55320657D01*
X157495000Y-55310000D01*
X157775000Y-55310000D01*
X157828576Y-55320657D01*
G37*
G36*
X152808576Y-55155657D02*
G01*
X152853995Y-55186005D01*
X152884343Y-55231424D01*
X152895000Y-55285000D01*
X152895000Y-55565000D01*
X152884343Y-55618576D01*
X152853995Y-55663995D01*
X152808576Y-55694343D01*
X152755000Y-55705000D01*
X152415000Y-55705000D01*
X152361424Y-55694343D01*
X152316005Y-55663995D01*
X152285657Y-55618576D01*
X152275000Y-55565000D01*
X152275000Y-55285000D01*
X152285657Y-55231424D01*
X152316005Y-55186005D01*
X152361424Y-55155657D01*
X152415000Y-55145000D01*
X152755000Y-55145000D01*
X152808576Y-55155657D01*
G37*
G36*
X153753576Y-55155657D02*
G01*
X153798995Y-55186005D01*
X153829343Y-55231424D01*
X153840000Y-55285000D01*
X153840000Y-55565000D01*
X153829343Y-55618576D01*
X153798995Y-55663995D01*
X153753576Y-55694343D01*
X153700000Y-55705000D01*
X153360000Y-55705000D01*
X153306424Y-55694343D01*
X153261005Y-55663995D01*
X153230657Y-55618576D01*
X153220000Y-55565000D01*
X153220000Y-55285000D01*
X153230657Y-55231424D01*
X153261005Y-55186005D01*
X153306424Y-55155657D01*
X153360000Y-55145000D01*
X153700000Y-55145000D01*
X153753576Y-55155657D01*
G37*
G36*
X154683576Y-55155657D02*
G01*
X154728995Y-55186005D01*
X154759343Y-55231424D01*
X154770000Y-55285000D01*
X154770000Y-55565000D01*
X154759343Y-55618576D01*
X154728995Y-55663995D01*
X154683576Y-55694343D01*
X154630000Y-55705000D01*
X154290000Y-55705000D01*
X154236424Y-55694343D01*
X154191005Y-55663995D01*
X154160657Y-55618576D01*
X154150000Y-55565000D01*
X154150000Y-55285000D01*
X154160657Y-55231424D01*
X154191005Y-55186005D01*
X154236424Y-55155657D01*
X154290000Y-55145000D01*
X154630000Y-55145000D01*
X154683576Y-55155657D01*
G37*
G36*
X164943268Y-55312612D02*
G01*
X164975711Y-55334289D01*
X164997388Y-55366732D01*
X165005000Y-55405000D01*
X165005000Y-55605000D01*
X164997388Y-55643268D01*
X164975711Y-55675711D01*
X164943268Y-55697388D01*
X164905000Y-55705000D01*
X164645000Y-55705000D01*
X164606732Y-55697388D01*
X164574289Y-55675711D01*
X164552612Y-55643268D01*
X164545000Y-55605000D01*
X164545000Y-55405000D01*
X164552612Y-55366732D01*
X164574289Y-55334289D01*
X164606732Y-55312612D01*
X164645000Y-55305000D01*
X164905000Y-55305000D01*
X164943268Y-55312612D01*
G37*
G36*
X165583268Y-55312612D02*
G01*
X165615711Y-55334289D01*
X165637388Y-55366732D01*
X165645000Y-55405000D01*
X165645000Y-55605000D01*
X165637388Y-55643268D01*
X165615711Y-55675711D01*
X165583268Y-55697388D01*
X165545000Y-55705000D01*
X165285000Y-55705000D01*
X165246732Y-55697388D01*
X165214289Y-55675711D01*
X165192612Y-55643268D01*
X165185000Y-55605000D01*
X165185000Y-55405000D01*
X165192612Y-55366732D01*
X165214289Y-55334289D01*
X165246732Y-55312612D01*
X165285000Y-55305000D01*
X165545000Y-55305000D01*
X165583268Y-55312612D01*
G37*
G36*
X155989268Y-55097612D02*
G01*
X156021711Y-55119289D01*
X156043388Y-55151732D01*
X156051000Y-55190000D01*
X156051000Y-55450000D01*
X156043388Y-55488268D01*
X156021711Y-55520711D01*
X155989268Y-55542388D01*
X155951000Y-55550000D01*
X155751000Y-55550000D01*
X155712732Y-55542388D01*
X155680289Y-55520711D01*
X155658612Y-55488268D01*
X155651000Y-55450000D01*
X155651000Y-55190000D01*
X155658612Y-55151732D01*
X155680289Y-55119289D01*
X155712732Y-55097612D01*
X155751000Y-55090000D01*
X155951000Y-55090000D01*
X155989268Y-55097612D01*
G37*
G36*
X150703268Y-54882612D02*
G01*
X150735711Y-54904289D01*
X150757388Y-54936732D01*
X150765000Y-54975000D01*
X150765000Y-55235000D01*
X150757388Y-55273268D01*
X150735711Y-55305711D01*
X150703268Y-55327388D01*
X150665000Y-55335000D01*
X150465000Y-55335000D01*
X150426732Y-55327388D01*
X150394289Y-55305711D01*
X150372612Y-55273268D01*
X150365000Y-55235000D01*
X150365000Y-54975000D01*
X150372612Y-54936732D01*
X150394289Y-54904289D01*
X150426732Y-54882612D01*
X150465000Y-54875000D01*
X150665000Y-54875000D01*
X150703268Y-54882612D01*
G37*
G36*
X151733268Y-54882612D02*
G01*
X151765711Y-54904289D01*
X151787388Y-54936732D01*
X151795000Y-54975000D01*
X151795000Y-55235000D01*
X151787388Y-55273268D01*
X151765711Y-55305711D01*
X151733268Y-55327388D01*
X151695000Y-55335000D01*
X151495000Y-55335000D01*
X151456732Y-55327388D01*
X151424289Y-55305711D01*
X151402612Y-55273268D01*
X151395000Y-55235000D01*
X151395000Y-54975000D01*
X151402612Y-54936732D01*
X151424289Y-54904289D01*
X151456732Y-54882612D01*
X151495000Y-54875000D01*
X151695000Y-54875000D01*
X151733268Y-54882612D01*
G37*
G36*
X155989268Y-54457612D02*
G01*
X156021711Y-54479289D01*
X156043388Y-54511732D01*
X156051000Y-54550000D01*
X156051000Y-54810000D01*
X156043388Y-54848268D01*
X156021711Y-54880711D01*
X155989268Y-54902388D01*
X155951000Y-54910000D01*
X155751000Y-54910000D01*
X155712732Y-54902388D01*
X155680289Y-54880711D01*
X155658612Y-54848268D01*
X155651000Y-54810000D01*
X155651000Y-54550000D01*
X155658612Y-54511732D01*
X155680289Y-54479289D01*
X155712732Y-54457612D01*
X155751000Y-54450000D01*
X155951000Y-54450000D01*
X155989268Y-54457612D01*
G37*
G36*
X152808576Y-54195657D02*
G01*
X152853995Y-54226005D01*
X152884343Y-54271424D01*
X152895000Y-54325000D01*
X152895000Y-54605000D01*
X152884343Y-54658576D01*
X152853995Y-54703995D01*
X152808576Y-54734343D01*
X152755000Y-54745000D01*
X152415000Y-54745000D01*
X152361424Y-54734343D01*
X152316005Y-54703995D01*
X152285657Y-54658576D01*
X152275000Y-54605000D01*
X152275000Y-54325000D01*
X152285657Y-54271424D01*
X152316005Y-54226005D01*
X152361424Y-54195657D01*
X152415000Y-54185000D01*
X152755000Y-54185000D01*
X152808576Y-54195657D01*
G37*
G36*
X153753576Y-54195657D02*
G01*
X153798995Y-54226005D01*
X153829343Y-54271424D01*
X153840000Y-54325000D01*
X153840000Y-54605000D01*
X153829343Y-54658576D01*
X153798995Y-54703995D01*
X153753576Y-54734343D01*
X153700000Y-54745000D01*
X153360000Y-54745000D01*
X153306424Y-54734343D01*
X153261005Y-54703995D01*
X153230657Y-54658576D01*
X153220000Y-54605000D01*
X153220000Y-54325000D01*
X153230657Y-54271424D01*
X153261005Y-54226005D01*
X153306424Y-54195657D01*
X153360000Y-54185000D01*
X153700000Y-54185000D01*
X153753576Y-54195657D01*
G37*
G36*
X154683576Y-54195657D02*
G01*
X154728995Y-54226005D01*
X154759343Y-54271424D01*
X154770000Y-54325000D01*
X154770000Y-54605000D01*
X154759343Y-54658576D01*
X154728995Y-54703995D01*
X154683576Y-54734343D01*
X154630000Y-54745000D01*
X154290000Y-54745000D01*
X154236424Y-54734343D01*
X154191005Y-54703995D01*
X154160657Y-54658576D01*
X154150000Y-54605000D01*
X154150000Y-54325000D01*
X154160657Y-54271424D01*
X154191005Y-54226005D01*
X154236424Y-54195657D01*
X154290000Y-54185000D01*
X154630000Y-54185000D01*
X154683576Y-54195657D01*
G37*
G36*
X160934969Y-53569741D02*
G01*
X160970489Y-53569741D01*
X160999362Y-53578219D01*
X161028079Y-53582000D01*
X161066653Y-53597977D01*
X161105755Y-53609459D01*
X161126392Y-53622721D01*
X161147431Y-53631436D01*
X161185978Y-53661015D01*
X161224353Y-53685677D01*
X161236726Y-53699956D01*
X161249919Y-53710080D01*
X161284131Y-53754665D01*
X161316673Y-53792221D01*
X161322147Y-53804208D01*
X161328563Y-53812569D01*
X161353889Y-53873713D01*
X161375237Y-53920458D01*
X161376292Y-53927800D01*
X161377999Y-53931920D01*
X161390103Y-54023854D01*
X161395300Y-54060000D01*
X161390102Y-54096148D01*
X161377999Y-54188079D01*
X161376292Y-54192197D01*
X161375237Y-54199542D01*
X161353887Y-54246291D01*
X161328563Y-54307431D01*
X161322147Y-54315791D01*
X161316673Y-54327779D01*
X161284127Y-54365339D01*
X161249919Y-54409919D01*
X161236728Y-54420040D01*
X161224353Y-54434323D01*
X161185970Y-54458990D01*
X161147431Y-54488563D01*
X161126396Y-54497275D01*
X161105755Y-54510541D01*
X161066645Y-54522024D01*
X161028079Y-54537999D01*
X160999369Y-54541778D01*
X160970489Y-54550259D01*
X160934961Y-54550259D01*
X160900000Y-54554862D01*
X160865039Y-54550259D01*
X160829511Y-54550259D01*
X160800631Y-54541779D01*
X160771920Y-54537999D01*
X160733351Y-54522023D01*
X160694245Y-54510541D01*
X160673605Y-54497276D01*
X160652568Y-54488563D01*
X160614023Y-54458986D01*
X160575647Y-54434323D01*
X160563273Y-54420042D01*
X160550080Y-54409919D01*
X160515863Y-54365328D01*
X160483327Y-54327779D01*
X160477854Y-54315794D01*
X160471436Y-54307431D01*
X160446101Y-54246267D01*
X160424763Y-54199542D01*
X160423707Y-54192201D01*
X160422000Y-54188079D01*
X160409885Y-54096066D01*
X160404700Y-54060000D01*
X160409885Y-54023936D01*
X160422000Y-53931920D01*
X160423707Y-53927796D01*
X160424763Y-53920458D01*
X160446102Y-53873732D01*
X160471436Y-53812569D01*
X160477854Y-53804204D01*
X160483327Y-53792221D01*
X160515860Y-53754675D01*
X160550080Y-53710080D01*
X160563275Y-53699954D01*
X160575647Y-53685677D01*
X160614019Y-53661016D01*
X160652569Y-53631436D01*
X160673608Y-53622721D01*
X160694245Y-53609459D01*
X160733344Y-53597978D01*
X160771920Y-53582000D01*
X160800637Y-53578219D01*
X160829511Y-53569741D01*
X160865031Y-53569741D01*
X160900000Y-53565137D01*
X160934969Y-53569741D01*
G37*
G36*
X168148268Y-53819612D02*
G01*
X168180711Y-53841289D01*
X168202388Y-53873732D01*
X168210000Y-53912000D01*
X168210000Y-54112000D01*
X168202388Y-54150268D01*
X168180711Y-54182711D01*
X168148268Y-54204388D01*
X168110000Y-54212000D01*
X167850000Y-54212000D01*
X167811732Y-54204388D01*
X167779289Y-54182711D01*
X167757612Y-54150268D01*
X167750000Y-54112000D01*
X167750000Y-53912000D01*
X167757612Y-53873732D01*
X167779289Y-53841289D01*
X167811732Y-53819612D01*
X167850000Y-53812000D01*
X168110000Y-53812000D01*
X168148268Y-53819612D01*
G37*
G36*
X168788268Y-53819612D02*
G01*
X168820711Y-53841289D01*
X168842388Y-53873732D01*
X168850000Y-53912000D01*
X168850000Y-54112000D01*
X168842388Y-54150268D01*
X168820711Y-54182711D01*
X168788268Y-54204388D01*
X168750000Y-54212000D01*
X168490000Y-54212000D01*
X168451732Y-54204388D01*
X168419289Y-54182711D01*
X168397612Y-54150268D01*
X168390000Y-54112000D01*
X168390000Y-53912000D01*
X168397612Y-53873732D01*
X168419289Y-53841289D01*
X168451732Y-53819612D01*
X168490000Y-53812000D01*
X168750000Y-53812000D01*
X168788268Y-53819612D01*
G37*
G36*
X170148268Y-53819612D02*
G01*
X170180711Y-53841289D01*
X170202388Y-53873732D01*
X170210000Y-53912000D01*
X170210000Y-54112000D01*
X170202388Y-54150268D01*
X170180711Y-54182711D01*
X170148268Y-54204388D01*
X170110000Y-54212000D01*
X169850000Y-54212000D01*
X169811732Y-54204388D01*
X169779289Y-54182711D01*
X169757612Y-54150268D01*
X169750000Y-54112000D01*
X169750000Y-53912000D01*
X169757612Y-53873732D01*
X169779289Y-53841289D01*
X169811732Y-53819612D01*
X169850000Y-53812000D01*
X170110000Y-53812000D01*
X170148268Y-53819612D01*
G37*
G36*
X170788268Y-53819612D02*
G01*
X170820711Y-53841289D01*
X170842388Y-53873732D01*
X170850000Y-53912000D01*
X170850000Y-54112000D01*
X170842388Y-54150268D01*
X170820711Y-54182711D01*
X170788268Y-54204388D01*
X170750000Y-54212000D01*
X170490000Y-54212000D01*
X170451732Y-54204388D01*
X170419289Y-54182711D01*
X170397612Y-54150268D01*
X170390000Y-54112000D01*
X170390000Y-53912000D01*
X170397612Y-53873732D01*
X170419289Y-53841289D01*
X170451732Y-53819612D01*
X170490000Y-53812000D01*
X170750000Y-53812000D01*
X170788268Y-53819612D01*
G37*
M02*
