M48
; DRILL file {KiCad 8.0.4} date 2025-02-12T17:32:12+0100
; FORMAT={-:-/ absolute / metric / decimal}
; #@! TF.CreationDate,2025-02-12T17:32:12+01:00
; #@! TF.GenerationSoftware,Kicad,Pcbnew,8.0.4
; #@! TF.FileFunction,Plated,1,4,PTH
FMAT,2
METRIC
; #@! TA.AperFunction,Plated,PTH,ViaDrill
T1C0.150
%
G90
G05
T1
X126.0Y-53.0
X126.0Y-55.0
X127.25Y-57.212
X127.75Y-57.65
X128.0Y-53.0
X130.0Y-53.0
X130.0Y-55.0
X131.0Y-58.5
X132.25Y-54.5
X132.25Y-55.25
X132.75Y-55.75
X133.0Y-58.5
X133.5Y-55.75
X133.645Y-52.87
X134.25Y-55.75
X134.645Y-52.87
X135.0Y-55.75
X135.0Y-58.5
X135.645Y-52.87
X135.75Y-55.75
X136.5Y-57.0
X137.0Y-57.5
X137.45Y-58.055
X137.75Y-54.75
X137.75Y-55.5
X137.875Y-56.075
X138.25Y-58.2
X138.395Y-56.5
X138.92Y-56.115
X139.0Y-58.2
X139.805Y-58.15
X139.81Y-56.5
X140.195Y-59.505
X140.43Y-56.495
X141.115Y-56.51
X141.75Y-58.05
X141.76Y-56.51
X141.86Y-54.09
X141.91Y-58.65
X142.331Y-59.265
X142.675Y-58.55
X142.675Y-58.905
X142.7Y-56.8
X142.7Y-57.85
X142.9Y-53.995
X143.0Y-53.0
X143.025Y-56.445
X143.4Y-55.6
X143.725Y-58.895
X143.725Y-59.836
X144.42Y-58.9
X144.424Y-56.45
X144.427Y-59.273
X144.43Y-57.12
X144.772Y-56.098
X144.774Y-56.45
X145.0Y-53.0
X145.125Y-58.895
X145.15Y-56.45
X145.792Y-59.207
X145.85Y-57.625
X146.07Y-58.56
X146.1Y-56.45
X146.12Y-56.835
X146.2Y-57.3
X147.0Y-53.0
X148.0Y-59.0
X148.415Y-57.625
X149.0Y-58.0
X149.0Y-59.0
X150.9Y-58.312
X151.262Y-57.663
X151.6Y-58.7
X152.01Y-53.93
X152.1Y-59.49
X152.496Y-57.235
X152.901Y-58.411
X152.905Y-56.667
X152.905Y-57.545
X153.231Y-56.17
X153.321Y-57.55
X153.331Y-57.1
X153.6Y-59.2
X153.743Y-57.107
X154.49Y-55.95
X154.58Y-57.53
X154.581Y-58.8
X155.0Y-57.547
X155.0Y-59.2
X155.419Y-57.987
X158.2Y-58.4
X159.4Y-55.385
X161.025Y-58.67
X162.26Y-56.295
X162.5Y-58.5
X163.0Y-54.5
X163.0Y-56.5
X164.0Y-54.5
X164.0Y-56.5
X164.0Y-59.0
X165.25Y-58.595
X165.66Y-54.59
X165.975Y-52.92
X166.315Y-57.775
X166.377Y-59.722
X166.955Y-53.9
X167.3Y-59.3
X168.229Y-57.057
X168.365Y-59.395
X168.41Y-52.676
X168.6Y-56.6
X168.825Y-55.275
X168.957Y-53.453
X169.1Y-56.5
X170.25Y-56.19
X170.62Y-54.665
X170.9Y-59.7
X170.945Y-55.73
X171.215Y-56.945
X172.0Y-53.0
X172.0Y-60.0
X174.0Y-53.0
X174.0Y-54.0
X174.0Y-59.0
X174.0Y-60.0
M30
