G04 #@! TF.GenerationSoftware,KiCad,Pcbnew,8.0.4*
G04 #@! TF.CreationDate,2025-02-12T17:32:25+01:00*
G04 #@! TF.ProjectId,Pfeil,50666569-6c2e-46b6-9963-61645f706362,rev?*
G04 #@! TF.SameCoordinates,Original*
G04 #@! TF.FileFunction,Paste,Bot*
G04 #@! TF.FilePolarity,Positive*
%FSLAX46Y46*%
G04 Gerber Fmt 4.6, Leading zero omitted, Abs format (unit mm)*
G04 Created by KiCad (PCBNEW 8.0.4) date 2025-02-12 17:32:25*
%MOMM*%
%LPD*%
G01*
G04 APERTURE LIST*
G04 Aperture macros list*
%AMRoundRect*
0 Rectangle with rounded corners*
0 $1 Rounding radius*
0 $2 $3 $4 $5 $6 $7 $8 $9 X,Y pos of 4 corners*
0 Add a 4 corners polygon primitive as box body*
4,1,4,$2,$3,$4,$5,$6,$7,$8,$9,$2,$3,0*
0 Add four circle primitives for the rounded corners*
1,1,$1+$1,$2,$3*
1,1,$1+$1,$4,$5*
1,1,$1+$1,$6,$7*
1,1,$1+$1,$8,$9*
0 Add four rect primitives between the rounded corners*
20,1,$1+$1,$2,$3,$4,$5,0*
20,1,$1+$1,$4,$5,$6,$7,0*
20,1,$1+$1,$6,$7,$8,$9,0*
20,1,$1+$1,$8,$9,$2,$3,0*%
G04 Aperture macros list end*
%ADD10RoundRect,0.079500X0.079500X0.100500X-0.079500X0.100500X-0.079500X-0.100500X0.079500X-0.100500X0*%
%ADD11RoundRect,0.079500X-0.079500X-0.100500X0.079500X-0.100500X0.079500X0.100500X-0.079500X0.100500X0*%
%ADD12RoundRect,0.079500X0.100500X-0.079500X0.100500X0.079500X-0.100500X0.079500X-0.100500X-0.079500X0*%
%ADD13RoundRect,0.126000X-0.126000X-0.153000X0.126000X-0.153000X0.126000X0.153000X-0.126000X0.153000X0*%
%ADD14C,0.225000*%
%ADD15RoundRect,0.126000X0.153000X-0.126000X0.153000X0.126000X-0.153000X0.126000X-0.153000X-0.126000X0*%
%ADD16RoundRect,0.126000X0.126000X0.153000X-0.126000X0.153000X-0.126000X-0.153000X0.126000X-0.153000X0*%
%ADD17R,0.517500X0.315000*%
%ADD18R,0.315000X0.517500*%
%ADD19RoundRect,0.079500X-0.100500X0.079500X-0.100500X-0.079500X0.100500X-0.079500X0.100500X0.079500X0*%
G04 APERTURE END LIST*
D10*
G04 #@! TO.C,C7*
X165440000Y-55505000D03*
X164750000Y-55505000D03*
G04 #@! TD*
D11*
G04 #@! TO.C,R7*
X164755000Y-57612000D03*
X165445000Y-57612000D03*
G04 #@! TD*
G04 #@! TO.C,C9*
X167955000Y-54012000D03*
X168645000Y-54012000D03*
G04 #@! TD*
D12*
G04 #@! TO.C,C10*
X155851000Y-55345000D03*
X155851000Y-54655000D03*
G04 #@! TD*
D13*
G04 #@! TO.C,C12*
X156670000Y-56560000D03*
X157630000Y-56560000D03*
G04 #@! TD*
D14*
G04 #@! TO.C,IC2*
X155419000Y-56667500D03*
X155000000Y-56667500D03*
X154581000Y-56667500D03*
X154162000Y-56667500D03*
X153743000Y-56667500D03*
X153324000Y-56667500D03*
X152905000Y-56667500D03*
X155419000Y-57107500D03*
X155000000Y-57107500D03*
X154581000Y-57107500D03*
X154162000Y-57107500D03*
X153743000Y-57107500D03*
X153324000Y-57107500D03*
X152905000Y-57107500D03*
X155419000Y-57547500D03*
X155000000Y-57547500D03*
X154581000Y-57547500D03*
X154162000Y-57547500D03*
X153743000Y-57547500D03*
X153324000Y-57547500D03*
X152905000Y-57547500D03*
X155419000Y-57987500D03*
X155000000Y-57987500D03*
X154581000Y-57987500D03*
X154162000Y-57987500D03*
X153743000Y-57987500D03*
X153324000Y-57987500D03*
X152905000Y-57987500D03*
X155419000Y-58427500D03*
X155000000Y-58427500D03*
X154581000Y-58427500D03*
X154162000Y-58427500D03*
X153743000Y-58427500D03*
X153324000Y-58427500D03*
X152905000Y-58427500D03*
G04 #@! TD*
D13*
G04 #@! TO.C,C14*
X156675000Y-57485000D03*
X157635000Y-57485000D03*
G04 #@! TD*
D15*
G04 #@! TO.C,C19*
X154460000Y-55425000D03*
X154460000Y-54465000D03*
G04 #@! TD*
D11*
G04 #@! TO.C,C8*
X169955000Y-54012000D03*
X170645000Y-54012000D03*
G04 #@! TD*
D15*
G04 #@! TO.C,C16*
X153530000Y-55425000D03*
X153530000Y-54465000D03*
G04 #@! TD*
D16*
G04 #@! TO.C,C36*
X151685000Y-57260000D03*
X150725000Y-57260000D03*
G04 #@! TD*
D17*
G04 #@! TO.C,IC1*
X167337000Y-57450000D03*
X167337000Y-56950000D03*
X167337000Y-56450000D03*
X167337000Y-55950000D03*
D18*
X168000000Y-55788000D03*
X168500000Y-55788000D03*
X169000000Y-55788000D03*
D17*
X169663000Y-55950000D03*
X169663000Y-56450000D03*
X169663000Y-56950000D03*
X169663000Y-57450000D03*
D18*
X169000000Y-57612000D03*
X168500000Y-57612000D03*
X168000000Y-57612000D03*
G04 #@! TD*
D10*
G04 #@! TO.C,C37*
X154181000Y-59590000D03*
X153491000Y-59590000D03*
G04 #@! TD*
D19*
G04 #@! TO.C,L2*
X150565000Y-55080000D03*
X150565000Y-55770000D03*
G04 #@! TD*
D10*
G04 #@! TO.C,R12*
X155696000Y-59595000D03*
X155006000Y-59595000D03*
G04 #@! TD*
D15*
G04 #@! TO.C,C15*
X152585000Y-55425000D03*
X152585000Y-54465000D03*
G04 #@! TD*
D11*
G04 #@! TO.C,R6*
X164760000Y-56909500D03*
X165450000Y-56909500D03*
G04 #@! TD*
D19*
G04 #@! TO.C,L1*
X151595000Y-55080000D03*
X151595000Y-55770000D03*
G04 #@! TD*
D10*
G04 #@! TO.C,C11*
X151596000Y-58665000D03*
X150906000Y-58665000D03*
G04 #@! TD*
D11*
G04 #@! TO.C,R5*
X164755000Y-56209500D03*
X165445000Y-56209500D03*
G04 #@! TD*
G04 #@! TO.C,R13*
X156706000Y-59067500D03*
X157396000Y-59067500D03*
G04 #@! TD*
G04 #@! TO.C,R9*
X169135000Y-59312000D03*
X169825000Y-59312000D03*
G04 #@! TD*
D13*
G04 #@! TO.C,C13*
X156675000Y-55620000D03*
X157635000Y-55620000D03*
G04 #@! TD*
M02*
