G04 #@! TF.GenerationSoftware,KiCad,Pcbnew,8.0.4*
G04 #@! TF.CreationDate,2025-02-12T17:32:25+01:00*
G04 #@! TF.ProjectId,Pfeil,50666569-6c2e-46b6-9963-61645f706362,rev?*
G04 #@! TF.SameCoordinates,Original*
G04 #@! TF.FileFunction,Legend,Bot*
G04 #@! TF.FilePolarity,Positive*
%FSLAX46Y46*%
G04 Gerber Fmt 4.6, Leading zero omitted, Abs format (unit mm)*
G04 Created by KiCad (PCBNEW 8.0.4) date 2025-02-12 17:32:25*
%MOMM*%
%LPD*%
G01*
G04 APERTURE LIST*
G04 Aperture macros list*
%AMRoundRect*
0 Rectangle with rounded corners*
0 $1 Rounding radius*
0 $2 $3 $4 $5 $6 $7 $8 $9 X,Y pos of 4 corners*
0 Add a 4 corners polygon primitive as box body*
4,1,4,$2,$3,$4,$5,$6,$7,$8,$9,$2,$3,0*
0 Add four circle primitives for the rounded corners*
1,1,$1+$1,$2,$3*
1,1,$1+$1,$4,$5*
1,1,$1+$1,$6,$7*
1,1,$1+$1,$8,$9*
0 Add four rect primitives between the rounded corners*
20,1,$1+$1,$2,$3,$4,$5,0*
20,1,$1+$1,$4,$5,$6,$7,0*
20,1,$1+$1,$6,$7,$8,$9,0*
20,1,$1+$1,$8,$9,$2,$3,0*%
G04 Aperture macros list end*
%ADD10C,0.100000*%
%ADD11C,0.080000*%
%ADD12C,0.120000*%
%ADD13C,0.200000*%
%ADD14C,0.990600*%
%ADD15R,2.500000X2.500000*%
%ADD16RoundRect,0.100000X0.130000X0.100000X-0.130000X0.100000X-0.130000X-0.100000X0.130000X-0.100000X0*%
%ADD17RoundRect,0.100000X-0.130000X-0.100000X0.130000X-0.100000X0.130000X0.100000X-0.130000X0.100000X0*%
%ADD18RoundRect,0.100000X0.100000X-0.130000X0.100000X0.130000X-0.100000X0.130000X-0.100000X-0.130000X0*%
%ADD19RoundRect,0.140000X-0.140000X-0.170000X0.140000X-0.170000X0.140000X0.170000X-0.140000X0.170000X0*%
%ADD20C,0.250000*%
%ADD21RoundRect,0.140000X0.170000X-0.140000X0.170000X0.140000X-0.170000X0.140000X-0.170000X-0.140000X0*%
%ADD22RoundRect,0.140000X0.140000X0.170000X-0.140000X0.170000X-0.140000X-0.170000X0.140000X-0.170000X0*%
%ADD23R,0.575000X0.350000*%
%ADD24R,0.350000X0.575000*%
%ADD25RoundRect,0.100000X-0.100000X0.130000X-0.100000X-0.130000X0.100000X-0.130000X0.100000X0.130000X0*%
G04 APERTURE END LIST*
D10*
X173416666Y-54112502D02*
X173416666Y-54576788D01*
X173416666Y-54576788D02*
X173447619Y-54669645D01*
X173447619Y-54669645D02*
X173509523Y-54731550D01*
X173509523Y-54731550D02*
X173602381Y-54762502D01*
X173602381Y-54762502D02*
X173664285Y-54762502D01*
X173138095Y-54174407D02*
X173107143Y-54143454D01*
X173107143Y-54143454D02*
X173045238Y-54112502D01*
X173045238Y-54112502D02*
X172890476Y-54112502D01*
X172890476Y-54112502D02*
X172828571Y-54143454D01*
X172828571Y-54143454D02*
X172797619Y-54174407D01*
X172797619Y-54174407D02*
X172766666Y-54236311D01*
X172766666Y-54236311D02*
X172766666Y-54298216D01*
X172766666Y-54298216D02*
X172797619Y-54391073D01*
X172797619Y-54391073D02*
X173169047Y-54762502D01*
X173169047Y-54762502D02*
X172766666Y-54762502D01*
X163933333Y-55663597D02*
X163964285Y-55694550D01*
X163964285Y-55694550D02*
X164057143Y-55725502D01*
X164057143Y-55725502D02*
X164119047Y-55725502D01*
X164119047Y-55725502D02*
X164211904Y-55694550D01*
X164211904Y-55694550D02*
X164273809Y-55632645D01*
X164273809Y-55632645D02*
X164304762Y-55570740D01*
X164304762Y-55570740D02*
X164335714Y-55446930D01*
X164335714Y-55446930D02*
X164335714Y-55354073D01*
X164335714Y-55354073D02*
X164304762Y-55230264D01*
X164304762Y-55230264D02*
X164273809Y-55168359D01*
X164273809Y-55168359D02*
X164211904Y-55106454D01*
X164211904Y-55106454D02*
X164119047Y-55075502D01*
X164119047Y-55075502D02*
X164057143Y-55075502D01*
X164057143Y-55075502D02*
X163964285Y-55106454D01*
X163964285Y-55106454D02*
X163933333Y-55137407D01*
X163716666Y-55075502D02*
X163283333Y-55075502D01*
X163283333Y-55075502D02*
X163561904Y-55725502D01*
X163958333Y-58010502D02*
X164175000Y-57700978D01*
X164329762Y-58010502D02*
X164329762Y-57360502D01*
X164329762Y-57360502D02*
X164082143Y-57360502D01*
X164082143Y-57360502D02*
X164020238Y-57391454D01*
X164020238Y-57391454D02*
X163989285Y-57422407D01*
X163989285Y-57422407D02*
X163958333Y-57484311D01*
X163958333Y-57484311D02*
X163958333Y-57577169D01*
X163958333Y-57577169D02*
X163989285Y-57639073D01*
X163989285Y-57639073D02*
X164020238Y-57670026D01*
X164020238Y-57670026D02*
X164082143Y-57700978D01*
X164082143Y-57700978D02*
X164329762Y-57700978D01*
X163741666Y-57360502D02*
X163308333Y-57360502D01*
X163308333Y-57360502D02*
X163586904Y-58010502D01*
X168408333Y-53445597D02*
X168439285Y-53476550D01*
X168439285Y-53476550D02*
X168532143Y-53507502D01*
X168532143Y-53507502D02*
X168594047Y-53507502D01*
X168594047Y-53507502D02*
X168686904Y-53476550D01*
X168686904Y-53476550D02*
X168748809Y-53414645D01*
X168748809Y-53414645D02*
X168779762Y-53352740D01*
X168779762Y-53352740D02*
X168810714Y-53228930D01*
X168810714Y-53228930D02*
X168810714Y-53136073D01*
X168810714Y-53136073D02*
X168779762Y-53012264D01*
X168779762Y-53012264D02*
X168748809Y-52950359D01*
X168748809Y-52950359D02*
X168686904Y-52888454D01*
X168686904Y-52888454D02*
X168594047Y-52857502D01*
X168594047Y-52857502D02*
X168532143Y-52857502D01*
X168532143Y-52857502D02*
X168439285Y-52888454D01*
X168439285Y-52888454D02*
X168408333Y-52919407D01*
X168098809Y-53507502D02*
X167975000Y-53507502D01*
X167975000Y-53507502D02*
X167913095Y-53476550D01*
X167913095Y-53476550D02*
X167882143Y-53445597D01*
X167882143Y-53445597D02*
X167820238Y-53352740D01*
X167820238Y-53352740D02*
X167789285Y-53228930D01*
X167789285Y-53228930D02*
X167789285Y-52981311D01*
X167789285Y-52981311D02*
X167820238Y-52919407D01*
X167820238Y-52919407D02*
X167851190Y-52888454D01*
X167851190Y-52888454D02*
X167913095Y-52857502D01*
X167913095Y-52857502D02*
X168036904Y-52857502D01*
X168036904Y-52857502D02*
X168098809Y-52888454D01*
X168098809Y-52888454D02*
X168129762Y-52919407D01*
X168129762Y-52919407D02*
X168160714Y-52981311D01*
X168160714Y-52981311D02*
X168160714Y-53136073D01*
X168160714Y-53136073D02*
X168129762Y-53197978D01*
X168129762Y-53197978D02*
X168098809Y-53228930D01*
X168098809Y-53228930D02*
X168036904Y-53259883D01*
X168036904Y-53259883D02*
X167913095Y-53259883D01*
X167913095Y-53259883D02*
X167851190Y-53228930D01*
X167851190Y-53228930D02*
X167820238Y-53197978D01*
X167820238Y-53197978D02*
X167789285Y-53136073D01*
X156123597Y-52917142D02*
X156154550Y-52886190D01*
X156154550Y-52886190D02*
X156185502Y-52793332D01*
X156185502Y-52793332D02*
X156185502Y-52731428D01*
X156185502Y-52731428D02*
X156154550Y-52638571D01*
X156154550Y-52638571D02*
X156092645Y-52576666D01*
X156092645Y-52576666D02*
X156030740Y-52545713D01*
X156030740Y-52545713D02*
X155906930Y-52514761D01*
X155906930Y-52514761D02*
X155814073Y-52514761D01*
X155814073Y-52514761D02*
X155690264Y-52545713D01*
X155690264Y-52545713D02*
X155628359Y-52576666D01*
X155628359Y-52576666D02*
X155566454Y-52638571D01*
X155566454Y-52638571D02*
X155535502Y-52731428D01*
X155535502Y-52731428D02*
X155535502Y-52793332D01*
X155535502Y-52793332D02*
X155566454Y-52886190D01*
X155566454Y-52886190D02*
X155597407Y-52917142D01*
X156185502Y-53536190D02*
X156185502Y-53164761D01*
X156185502Y-53350475D02*
X155535502Y-53350475D01*
X155535502Y-53350475D02*
X155628359Y-53288571D01*
X155628359Y-53288571D02*
X155690264Y-53226666D01*
X155690264Y-53226666D02*
X155721216Y-53164761D01*
X155535502Y-53938571D02*
X155535502Y-54000476D01*
X155535502Y-54000476D02*
X155566454Y-54062380D01*
X155566454Y-54062380D02*
X155597407Y-54093333D01*
X155597407Y-54093333D02*
X155659311Y-54124285D01*
X155659311Y-54124285D02*
X155783121Y-54155238D01*
X155783121Y-54155238D02*
X155937883Y-54155238D01*
X155937883Y-54155238D02*
X156061692Y-54124285D01*
X156061692Y-54124285D02*
X156123597Y-54093333D01*
X156123597Y-54093333D02*
X156154550Y-54062380D01*
X156154550Y-54062380D02*
X156185502Y-54000476D01*
X156185502Y-54000476D02*
X156185502Y-53938571D01*
X156185502Y-53938571D02*
X156154550Y-53876666D01*
X156154550Y-53876666D02*
X156123597Y-53845714D01*
X156123597Y-53845714D02*
X156061692Y-53814761D01*
X156061692Y-53814761D02*
X155937883Y-53783809D01*
X155937883Y-53783809D02*
X155783121Y-53783809D01*
X155783121Y-53783809D02*
X155659311Y-53814761D01*
X155659311Y-53814761D02*
X155597407Y-53845714D01*
X155597407Y-53845714D02*
X155566454Y-53876666D01*
X155566454Y-53876666D02*
X155535502Y-53938571D01*
X159481857Y-56868597D02*
X159512809Y-56899550D01*
X159512809Y-56899550D02*
X159605667Y-56930502D01*
X159605667Y-56930502D02*
X159667571Y-56930502D01*
X159667571Y-56930502D02*
X159760428Y-56899550D01*
X159760428Y-56899550D02*
X159822333Y-56837645D01*
X159822333Y-56837645D02*
X159853286Y-56775740D01*
X159853286Y-56775740D02*
X159884238Y-56651930D01*
X159884238Y-56651930D02*
X159884238Y-56559073D01*
X159884238Y-56559073D02*
X159853286Y-56435264D01*
X159853286Y-56435264D02*
X159822333Y-56373359D01*
X159822333Y-56373359D02*
X159760428Y-56311454D01*
X159760428Y-56311454D02*
X159667571Y-56280502D01*
X159667571Y-56280502D02*
X159605667Y-56280502D01*
X159605667Y-56280502D02*
X159512809Y-56311454D01*
X159512809Y-56311454D02*
X159481857Y-56342407D01*
X158862809Y-56930502D02*
X159234238Y-56930502D01*
X159048524Y-56930502D02*
X159048524Y-56280502D01*
X159048524Y-56280502D02*
X159110428Y-56373359D01*
X159110428Y-56373359D02*
X159172333Y-56435264D01*
X159172333Y-56435264D02*
X159234238Y-56466216D01*
X158615190Y-56342407D02*
X158584238Y-56311454D01*
X158584238Y-56311454D02*
X158522333Y-56280502D01*
X158522333Y-56280502D02*
X158367571Y-56280502D01*
X158367571Y-56280502D02*
X158305666Y-56311454D01*
X158305666Y-56311454D02*
X158274714Y-56342407D01*
X158274714Y-56342407D02*
X158243761Y-56404311D01*
X158243761Y-56404311D02*
X158243761Y-56466216D01*
X158243761Y-56466216D02*
X158274714Y-56559073D01*
X158274714Y-56559073D02*
X158646142Y-56930502D01*
X158646142Y-56930502D02*
X158243761Y-56930502D01*
X152934524Y-59895502D02*
X152934524Y-59245502D01*
X152253571Y-59833597D02*
X152284523Y-59864550D01*
X152284523Y-59864550D02*
X152377381Y-59895502D01*
X152377381Y-59895502D02*
X152439285Y-59895502D01*
X152439285Y-59895502D02*
X152532142Y-59864550D01*
X152532142Y-59864550D02*
X152594047Y-59802645D01*
X152594047Y-59802645D02*
X152625000Y-59740740D01*
X152625000Y-59740740D02*
X152655952Y-59616930D01*
X152655952Y-59616930D02*
X152655952Y-59524073D01*
X152655952Y-59524073D02*
X152625000Y-59400264D01*
X152625000Y-59400264D02*
X152594047Y-59338359D01*
X152594047Y-59338359D02*
X152532142Y-59276454D01*
X152532142Y-59276454D02*
X152439285Y-59245502D01*
X152439285Y-59245502D02*
X152377381Y-59245502D01*
X152377381Y-59245502D02*
X152284523Y-59276454D01*
X152284523Y-59276454D02*
X152253571Y-59307407D01*
X152005952Y-59307407D02*
X151975000Y-59276454D01*
X151975000Y-59276454D02*
X151913095Y-59245502D01*
X151913095Y-59245502D02*
X151758333Y-59245502D01*
X151758333Y-59245502D02*
X151696428Y-59276454D01*
X151696428Y-59276454D02*
X151665476Y-59307407D01*
X151665476Y-59307407D02*
X151634523Y-59369311D01*
X151634523Y-59369311D02*
X151634523Y-59431216D01*
X151634523Y-59431216D02*
X151665476Y-59524073D01*
X151665476Y-59524073D02*
X152036904Y-59895502D01*
X152036904Y-59895502D02*
X151634523Y-59895502D01*
X159451857Y-57863597D02*
X159482809Y-57894550D01*
X159482809Y-57894550D02*
X159575667Y-57925502D01*
X159575667Y-57925502D02*
X159637571Y-57925502D01*
X159637571Y-57925502D02*
X159730428Y-57894550D01*
X159730428Y-57894550D02*
X159792333Y-57832645D01*
X159792333Y-57832645D02*
X159823286Y-57770740D01*
X159823286Y-57770740D02*
X159854238Y-57646930D01*
X159854238Y-57646930D02*
X159854238Y-57554073D01*
X159854238Y-57554073D02*
X159823286Y-57430264D01*
X159823286Y-57430264D02*
X159792333Y-57368359D01*
X159792333Y-57368359D02*
X159730428Y-57306454D01*
X159730428Y-57306454D02*
X159637571Y-57275502D01*
X159637571Y-57275502D02*
X159575667Y-57275502D01*
X159575667Y-57275502D02*
X159482809Y-57306454D01*
X159482809Y-57306454D02*
X159451857Y-57337407D01*
X158832809Y-57925502D02*
X159204238Y-57925502D01*
X159018524Y-57925502D02*
X159018524Y-57275502D01*
X159018524Y-57275502D02*
X159080428Y-57368359D01*
X159080428Y-57368359D02*
X159142333Y-57430264D01*
X159142333Y-57430264D02*
X159204238Y-57461216D01*
X158275666Y-57492169D02*
X158275666Y-57925502D01*
X158430428Y-57244550D02*
X158585190Y-57708835D01*
X158585190Y-57708835D02*
X158182809Y-57708835D01*
X154708597Y-52727142D02*
X154739550Y-52696190D01*
X154739550Y-52696190D02*
X154770502Y-52603332D01*
X154770502Y-52603332D02*
X154770502Y-52541428D01*
X154770502Y-52541428D02*
X154739550Y-52448571D01*
X154739550Y-52448571D02*
X154677645Y-52386666D01*
X154677645Y-52386666D02*
X154615740Y-52355713D01*
X154615740Y-52355713D02*
X154491930Y-52324761D01*
X154491930Y-52324761D02*
X154399073Y-52324761D01*
X154399073Y-52324761D02*
X154275264Y-52355713D01*
X154275264Y-52355713D02*
X154213359Y-52386666D01*
X154213359Y-52386666D02*
X154151454Y-52448571D01*
X154151454Y-52448571D02*
X154120502Y-52541428D01*
X154120502Y-52541428D02*
X154120502Y-52603332D01*
X154120502Y-52603332D02*
X154151454Y-52696190D01*
X154151454Y-52696190D02*
X154182407Y-52727142D01*
X154770502Y-53346190D02*
X154770502Y-52974761D01*
X154770502Y-53160475D02*
X154120502Y-53160475D01*
X154120502Y-53160475D02*
X154213359Y-53098571D01*
X154213359Y-53098571D02*
X154275264Y-53036666D01*
X154275264Y-53036666D02*
X154306216Y-52974761D01*
X154770502Y-53655714D02*
X154770502Y-53779523D01*
X154770502Y-53779523D02*
X154739550Y-53841428D01*
X154739550Y-53841428D02*
X154708597Y-53872380D01*
X154708597Y-53872380D02*
X154615740Y-53934285D01*
X154615740Y-53934285D02*
X154491930Y-53965238D01*
X154491930Y-53965238D02*
X154244311Y-53965238D01*
X154244311Y-53965238D02*
X154182407Y-53934285D01*
X154182407Y-53934285D02*
X154151454Y-53903333D01*
X154151454Y-53903333D02*
X154120502Y-53841428D01*
X154120502Y-53841428D02*
X154120502Y-53717619D01*
X154120502Y-53717619D02*
X154151454Y-53655714D01*
X154151454Y-53655714D02*
X154182407Y-53624761D01*
X154182407Y-53624761D02*
X154244311Y-53593809D01*
X154244311Y-53593809D02*
X154399073Y-53593809D01*
X154399073Y-53593809D02*
X154460978Y-53624761D01*
X154460978Y-53624761D02*
X154491930Y-53655714D01*
X154491930Y-53655714D02*
X154522883Y-53717619D01*
X154522883Y-53717619D02*
X154522883Y-53841428D01*
X154522883Y-53841428D02*
X154491930Y-53903333D01*
X154491930Y-53903333D02*
X154460978Y-53934285D01*
X154460978Y-53934285D02*
X154399073Y-53965238D01*
X170408333Y-53445597D02*
X170439285Y-53476550D01*
X170439285Y-53476550D02*
X170532143Y-53507502D01*
X170532143Y-53507502D02*
X170594047Y-53507502D01*
X170594047Y-53507502D02*
X170686904Y-53476550D01*
X170686904Y-53476550D02*
X170748809Y-53414645D01*
X170748809Y-53414645D02*
X170779762Y-53352740D01*
X170779762Y-53352740D02*
X170810714Y-53228930D01*
X170810714Y-53228930D02*
X170810714Y-53136073D01*
X170810714Y-53136073D02*
X170779762Y-53012264D01*
X170779762Y-53012264D02*
X170748809Y-52950359D01*
X170748809Y-52950359D02*
X170686904Y-52888454D01*
X170686904Y-52888454D02*
X170594047Y-52857502D01*
X170594047Y-52857502D02*
X170532143Y-52857502D01*
X170532143Y-52857502D02*
X170439285Y-52888454D01*
X170439285Y-52888454D02*
X170408333Y-52919407D01*
X170036904Y-53136073D02*
X170098809Y-53105121D01*
X170098809Y-53105121D02*
X170129762Y-53074169D01*
X170129762Y-53074169D02*
X170160714Y-53012264D01*
X170160714Y-53012264D02*
X170160714Y-52981311D01*
X170160714Y-52981311D02*
X170129762Y-52919407D01*
X170129762Y-52919407D02*
X170098809Y-52888454D01*
X170098809Y-52888454D02*
X170036904Y-52857502D01*
X170036904Y-52857502D02*
X169913095Y-52857502D01*
X169913095Y-52857502D02*
X169851190Y-52888454D01*
X169851190Y-52888454D02*
X169820238Y-52919407D01*
X169820238Y-52919407D02*
X169789285Y-52981311D01*
X169789285Y-52981311D02*
X169789285Y-53012264D01*
X169789285Y-53012264D02*
X169820238Y-53074169D01*
X169820238Y-53074169D02*
X169851190Y-53105121D01*
X169851190Y-53105121D02*
X169913095Y-53136073D01*
X169913095Y-53136073D02*
X170036904Y-53136073D01*
X170036904Y-53136073D02*
X170098809Y-53167026D01*
X170098809Y-53167026D02*
X170129762Y-53197978D01*
X170129762Y-53197978D02*
X170160714Y-53259883D01*
X170160714Y-53259883D02*
X170160714Y-53383692D01*
X170160714Y-53383692D02*
X170129762Y-53445597D01*
X170129762Y-53445597D02*
X170098809Y-53476550D01*
X170098809Y-53476550D02*
X170036904Y-53507502D01*
X170036904Y-53507502D02*
X169913095Y-53507502D01*
X169913095Y-53507502D02*
X169851190Y-53476550D01*
X169851190Y-53476550D02*
X169820238Y-53445597D01*
X169820238Y-53445597D02*
X169789285Y-53383692D01*
X169789285Y-53383692D02*
X169789285Y-53259883D01*
X169789285Y-53259883D02*
X169820238Y-53197978D01*
X169820238Y-53197978D02*
X169851190Y-53167026D01*
X169851190Y-53167026D02*
X169913095Y-53136073D01*
X153703597Y-52717142D02*
X153734550Y-52686190D01*
X153734550Y-52686190D02*
X153765502Y-52593332D01*
X153765502Y-52593332D02*
X153765502Y-52531428D01*
X153765502Y-52531428D02*
X153734550Y-52438571D01*
X153734550Y-52438571D02*
X153672645Y-52376666D01*
X153672645Y-52376666D02*
X153610740Y-52345713D01*
X153610740Y-52345713D02*
X153486930Y-52314761D01*
X153486930Y-52314761D02*
X153394073Y-52314761D01*
X153394073Y-52314761D02*
X153270264Y-52345713D01*
X153270264Y-52345713D02*
X153208359Y-52376666D01*
X153208359Y-52376666D02*
X153146454Y-52438571D01*
X153146454Y-52438571D02*
X153115502Y-52531428D01*
X153115502Y-52531428D02*
X153115502Y-52593332D01*
X153115502Y-52593332D02*
X153146454Y-52686190D01*
X153146454Y-52686190D02*
X153177407Y-52717142D01*
X153765502Y-53336190D02*
X153765502Y-52964761D01*
X153765502Y-53150475D02*
X153115502Y-53150475D01*
X153115502Y-53150475D02*
X153208359Y-53088571D01*
X153208359Y-53088571D02*
X153270264Y-53026666D01*
X153270264Y-53026666D02*
X153301216Y-52964761D01*
X153115502Y-53893333D02*
X153115502Y-53769523D01*
X153115502Y-53769523D02*
X153146454Y-53707619D01*
X153146454Y-53707619D02*
X153177407Y-53676666D01*
X153177407Y-53676666D02*
X153270264Y-53614761D01*
X153270264Y-53614761D02*
X153394073Y-53583809D01*
X153394073Y-53583809D02*
X153641692Y-53583809D01*
X153641692Y-53583809D02*
X153703597Y-53614761D01*
X153703597Y-53614761D02*
X153734550Y-53645714D01*
X153734550Y-53645714D02*
X153765502Y-53707619D01*
X153765502Y-53707619D02*
X153765502Y-53831428D01*
X153765502Y-53831428D02*
X153734550Y-53893333D01*
X153734550Y-53893333D02*
X153703597Y-53924285D01*
X153703597Y-53924285D02*
X153641692Y-53955238D01*
X153641692Y-53955238D02*
X153486930Y-53955238D01*
X153486930Y-53955238D02*
X153425026Y-53924285D01*
X153425026Y-53924285D02*
X153394073Y-53893333D01*
X153394073Y-53893333D02*
X153363121Y-53831428D01*
X153363121Y-53831428D02*
X153363121Y-53707619D01*
X153363121Y-53707619D02*
X153394073Y-53645714D01*
X153394073Y-53645714D02*
X153425026Y-53614761D01*
X153425026Y-53614761D02*
X153486930Y-53583809D01*
X149802857Y-57518597D02*
X149833809Y-57549550D01*
X149833809Y-57549550D02*
X149926667Y-57580502D01*
X149926667Y-57580502D02*
X149988571Y-57580502D01*
X149988571Y-57580502D02*
X150081428Y-57549550D01*
X150081428Y-57549550D02*
X150143333Y-57487645D01*
X150143333Y-57487645D02*
X150174286Y-57425740D01*
X150174286Y-57425740D02*
X150205238Y-57301930D01*
X150205238Y-57301930D02*
X150205238Y-57209073D01*
X150205238Y-57209073D02*
X150174286Y-57085264D01*
X150174286Y-57085264D02*
X150143333Y-57023359D01*
X150143333Y-57023359D02*
X150081428Y-56961454D01*
X150081428Y-56961454D02*
X149988571Y-56930502D01*
X149988571Y-56930502D02*
X149926667Y-56930502D01*
X149926667Y-56930502D02*
X149833809Y-56961454D01*
X149833809Y-56961454D02*
X149802857Y-56992407D01*
X149586190Y-56930502D02*
X149183809Y-56930502D01*
X149183809Y-56930502D02*
X149400476Y-57178121D01*
X149400476Y-57178121D02*
X149307619Y-57178121D01*
X149307619Y-57178121D02*
X149245714Y-57209073D01*
X149245714Y-57209073D02*
X149214762Y-57240026D01*
X149214762Y-57240026D02*
X149183809Y-57301930D01*
X149183809Y-57301930D02*
X149183809Y-57456692D01*
X149183809Y-57456692D02*
X149214762Y-57518597D01*
X149214762Y-57518597D02*
X149245714Y-57549550D01*
X149245714Y-57549550D02*
X149307619Y-57580502D01*
X149307619Y-57580502D02*
X149493333Y-57580502D01*
X149493333Y-57580502D02*
X149555238Y-57549550D01*
X149555238Y-57549550D02*
X149586190Y-57518597D01*
X148626666Y-56930502D02*
X148750476Y-56930502D01*
X148750476Y-56930502D02*
X148812380Y-56961454D01*
X148812380Y-56961454D02*
X148843333Y-56992407D01*
X148843333Y-56992407D02*
X148905238Y-57085264D01*
X148905238Y-57085264D02*
X148936190Y-57209073D01*
X148936190Y-57209073D02*
X148936190Y-57456692D01*
X148936190Y-57456692D02*
X148905238Y-57518597D01*
X148905238Y-57518597D02*
X148874285Y-57549550D01*
X148874285Y-57549550D02*
X148812380Y-57580502D01*
X148812380Y-57580502D02*
X148688571Y-57580502D01*
X148688571Y-57580502D02*
X148626666Y-57549550D01*
X148626666Y-57549550D02*
X148595714Y-57518597D01*
X148595714Y-57518597D02*
X148564761Y-57456692D01*
X148564761Y-57456692D02*
X148564761Y-57301930D01*
X148564761Y-57301930D02*
X148595714Y-57240026D01*
X148595714Y-57240026D02*
X148626666Y-57209073D01*
X148626666Y-57209073D02*
X148688571Y-57178121D01*
X148688571Y-57178121D02*
X148812380Y-57178121D01*
X148812380Y-57178121D02*
X148874285Y-57209073D01*
X148874285Y-57209073D02*
X148905238Y-57240026D01*
X148905238Y-57240026D02*
X148936190Y-57301930D01*
X167534524Y-55507502D02*
X167534524Y-54857502D01*
X166853571Y-55445597D02*
X166884523Y-55476550D01*
X166884523Y-55476550D02*
X166977381Y-55507502D01*
X166977381Y-55507502D02*
X167039285Y-55507502D01*
X167039285Y-55507502D02*
X167132142Y-55476550D01*
X167132142Y-55476550D02*
X167194047Y-55414645D01*
X167194047Y-55414645D02*
X167225000Y-55352740D01*
X167225000Y-55352740D02*
X167255952Y-55228930D01*
X167255952Y-55228930D02*
X167255952Y-55136073D01*
X167255952Y-55136073D02*
X167225000Y-55012264D01*
X167225000Y-55012264D02*
X167194047Y-54950359D01*
X167194047Y-54950359D02*
X167132142Y-54888454D01*
X167132142Y-54888454D02*
X167039285Y-54857502D01*
X167039285Y-54857502D02*
X166977381Y-54857502D01*
X166977381Y-54857502D02*
X166884523Y-54888454D01*
X166884523Y-54888454D02*
X166853571Y-54919407D01*
X166234523Y-55507502D02*
X166605952Y-55507502D01*
X166420238Y-55507502D02*
X166420238Y-54857502D01*
X166420238Y-54857502D02*
X166482142Y-54950359D01*
X166482142Y-54950359D02*
X166544047Y-55012264D01*
X166544047Y-55012264D02*
X166605952Y-55043216D01*
D11*
X154157142Y-60342792D02*
X154176190Y-60361840D01*
X154176190Y-60361840D02*
X154233332Y-60380887D01*
X154233332Y-60380887D02*
X154271428Y-60380887D01*
X154271428Y-60380887D02*
X154328571Y-60361840D01*
X154328571Y-60361840D02*
X154366666Y-60323744D01*
X154366666Y-60323744D02*
X154385713Y-60285649D01*
X154385713Y-60285649D02*
X154404761Y-60209459D01*
X154404761Y-60209459D02*
X154404761Y-60152316D01*
X154404761Y-60152316D02*
X154385713Y-60076125D01*
X154385713Y-60076125D02*
X154366666Y-60038030D01*
X154366666Y-60038030D02*
X154328571Y-59999935D01*
X154328571Y-59999935D02*
X154271428Y-59980887D01*
X154271428Y-59980887D02*
X154233332Y-59980887D01*
X154233332Y-59980887D02*
X154176190Y-59999935D01*
X154176190Y-59999935D02*
X154157142Y-60018982D01*
X154023809Y-59980887D02*
X153776190Y-59980887D01*
X153776190Y-59980887D02*
X153909523Y-60133268D01*
X153909523Y-60133268D02*
X153852380Y-60133268D01*
X153852380Y-60133268D02*
X153814285Y-60152316D01*
X153814285Y-60152316D02*
X153795237Y-60171363D01*
X153795237Y-60171363D02*
X153776190Y-60209459D01*
X153776190Y-60209459D02*
X153776190Y-60304697D01*
X153776190Y-60304697D02*
X153795237Y-60342792D01*
X153795237Y-60342792D02*
X153814285Y-60361840D01*
X153814285Y-60361840D02*
X153852380Y-60380887D01*
X153852380Y-60380887D02*
X153966666Y-60380887D01*
X153966666Y-60380887D02*
X154004761Y-60361840D01*
X154004761Y-60361840D02*
X154023809Y-60342792D01*
X153642857Y-59980887D02*
X153376190Y-59980887D01*
X153376190Y-59980887D02*
X153547619Y-60380887D01*
D10*
X150693333Y-54610502D02*
X151002857Y-54610502D01*
X151002857Y-54610502D02*
X151002857Y-53960502D01*
X150507619Y-54022407D02*
X150476667Y-53991454D01*
X150476667Y-53991454D02*
X150414762Y-53960502D01*
X150414762Y-53960502D02*
X150260000Y-53960502D01*
X150260000Y-53960502D02*
X150198095Y-53991454D01*
X150198095Y-53991454D02*
X150167143Y-54022407D01*
X150167143Y-54022407D02*
X150136190Y-54084311D01*
X150136190Y-54084311D02*
X150136190Y-54146216D01*
X150136190Y-54146216D02*
X150167143Y-54239073D01*
X150167143Y-54239073D02*
X150538571Y-54610502D01*
X150538571Y-54610502D02*
X150136190Y-54610502D01*
D11*
X155657142Y-60380887D02*
X155790475Y-60190411D01*
X155885713Y-60380887D02*
X155885713Y-59980887D01*
X155885713Y-59980887D02*
X155733332Y-59980887D01*
X155733332Y-59980887D02*
X155695237Y-59999935D01*
X155695237Y-59999935D02*
X155676190Y-60018982D01*
X155676190Y-60018982D02*
X155657142Y-60057078D01*
X155657142Y-60057078D02*
X155657142Y-60114220D01*
X155657142Y-60114220D02*
X155676190Y-60152316D01*
X155676190Y-60152316D02*
X155695237Y-60171363D01*
X155695237Y-60171363D02*
X155733332Y-60190411D01*
X155733332Y-60190411D02*
X155885713Y-60190411D01*
X155276190Y-60380887D02*
X155504761Y-60380887D01*
X155390475Y-60380887D02*
X155390475Y-59980887D01*
X155390475Y-59980887D02*
X155428571Y-60038030D01*
X155428571Y-60038030D02*
X155466666Y-60076125D01*
X155466666Y-60076125D02*
X155504761Y-60095173D01*
X155123809Y-60018982D02*
X155104761Y-59999935D01*
X155104761Y-59999935D02*
X155066666Y-59980887D01*
X155066666Y-59980887D02*
X154971428Y-59980887D01*
X154971428Y-59980887D02*
X154933333Y-59999935D01*
X154933333Y-59999935D02*
X154914285Y-60018982D01*
X154914285Y-60018982D02*
X154895238Y-60057078D01*
X154895238Y-60057078D02*
X154895238Y-60095173D01*
X154895238Y-60095173D02*
X154914285Y-60152316D01*
X154914285Y-60152316D02*
X155142857Y-60380887D01*
X155142857Y-60380887D02*
X154895238Y-60380887D01*
D10*
X152823597Y-52717142D02*
X152854550Y-52686190D01*
X152854550Y-52686190D02*
X152885502Y-52593332D01*
X152885502Y-52593332D02*
X152885502Y-52531428D01*
X152885502Y-52531428D02*
X152854550Y-52438571D01*
X152854550Y-52438571D02*
X152792645Y-52376666D01*
X152792645Y-52376666D02*
X152730740Y-52345713D01*
X152730740Y-52345713D02*
X152606930Y-52314761D01*
X152606930Y-52314761D02*
X152514073Y-52314761D01*
X152514073Y-52314761D02*
X152390264Y-52345713D01*
X152390264Y-52345713D02*
X152328359Y-52376666D01*
X152328359Y-52376666D02*
X152266454Y-52438571D01*
X152266454Y-52438571D02*
X152235502Y-52531428D01*
X152235502Y-52531428D02*
X152235502Y-52593332D01*
X152235502Y-52593332D02*
X152266454Y-52686190D01*
X152266454Y-52686190D02*
X152297407Y-52717142D01*
X152885502Y-53336190D02*
X152885502Y-52964761D01*
X152885502Y-53150475D02*
X152235502Y-53150475D01*
X152235502Y-53150475D02*
X152328359Y-53088571D01*
X152328359Y-53088571D02*
X152390264Y-53026666D01*
X152390264Y-53026666D02*
X152421216Y-52964761D01*
X152235502Y-53924285D02*
X152235502Y-53614761D01*
X152235502Y-53614761D02*
X152545026Y-53583809D01*
X152545026Y-53583809D02*
X152514073Y-53614761D01*
X152514073Y-53614761D02*
X152483121Y-53676666D01*
X152483121Y-53676666D02*
X152483121Y-53831428D01*
X152483121Y-53831428D02*
X152514073Y-53893333D01*
X152514073Y-53893333D02*
X152545026Y-53924285D01*
X152545026Y-53924285D02*
X152606930Y-53955238D01*
X152606930Y-53955238D02*
X152761692Y-53955238D01*
X152761692Y-53955238D02*
X152823597Y-53924285D01*
X152823597Y-53924285D02*
X152854550Y-53893333D01*
X152854550Y-53893333D02*
X152885502Y-53831428D01*
X152885502Y-53831428D02*
X152885502Y-53676666D01*
X152885502Y-53676666D02*
X152854550Y-53614761D01*
X152854550Y-53614761D02*
X152823597Y-53583809D01*
X163943333Y-57255502D02*
X164160000Y-56945978D01*
X164314762Y-57255502D02*
X164314762Y-56605502D01*
X164314762Y-56605502D02*
X164067143Y-56605502D01*
X164067143Y-56605502D02*
X164005238Y-56636454D01*
X164005238Y-56636454D02*
X163974285Y-56667407D01*
X163974285Y-56667407D02*
X163943333Y-56729311D01*
X163943333Y-56729311D02*
X163943333Y-56822169D01*
X163943333Y-56822169D02*
X163974285Y-56884073D01*
X163974285Y-56884073D02*
X164005238Y-56915026D01*
X164005238Y-56915026D02*
X164067143Y-56945978D01*
X164067143Y-56945978D02*
X164314762Y-56945978D01*
X163386190Y-56605502D02*
X163510000Y-56605502D01*
X163510000Y-56605502D02*
X163571904Y-56636454D01*
X163571904Y-56636454D02*
X163602857Y-56667407D01*
X163602857Y-56667407D02*
X163664762Y-56760264D01*
X163664762Y-56760264D02*
X163695714Y-56884073D01*
X163695714Y-56884073D02*
X163695714Y-57131692D01*
X163695714Y-57131692D02*
X163664762Y-57193597D01*
X163664762Y-57193597D02*
X163633809Y-57224550D01*
X163633809Y-57224550D02*
X163571904Y-57255502D01*
X163571904Y-57255502D02*
X163448095Y-57255502D01*
X163448095Y-57255502D02*
X163386190Y-57224550D01*
X163386190Y-57224550D02*
X163355238Y-57193597D01*
X163355238Y-57193597D02*
X163324285Y-57131692D01*
X163324285Y-57131692D02*
X163324285Y-56976930D01*
X163324285Y-56976930D02*
X163355238Y-56915026D01*
X163355238Y-56915026D02*
X163386190Y-56884073D01*
X163386190Y-56884073D02*
X163448095Y-56853121D01*
X163448095Y-56853121D02*
X163571904Y-56853121D01*
X163571904Y-56853121D02*
X163633809Y-56884073D01*
X163633809Y-56884073D02*
X163664762Y-56915026D01*
X163664762Y-56915026D02*
X163695714Y-56976930D01*
X151648333Y-54625502D02*
X151957857Y-54625502D01*
X151957857Y-54625502D02*
X151957857Y-53975502D01*
X151091190Y-54625502D02*
X151462619Y-54625502D01*
X151276905Y-54625502D02*
X151276905Y-53975502D01*
X151276905Y-53975502D02*
X151338809Y-54068359D01*
X151338809Y-54068359D02*
X151400714Y-54130264D01*
X151400714Y-54130264D02*
X151462619Y-54161216D01*
X150088857Y-58948597D02*
X150119809Y-58979550D01*
X150119809Y-58979550D02*
X150212667Y-59010502D01*
X150212667Y-59010502D02*
X150274571Y-59010502D01*
X150274571Y-59010502D02*
X150367428Y-58979550D01*
X150367428Y-58979550D02*
X150429333Y-58917645D01*
X150429333Y-58917645D02*
X150460286Y-58855740D01*
X150460286Y-58855740D02*
X150491238Y-58731930D01*
X150491238Y-58731930D02*
X150491238Y-58639073D01*
X150491238Y-58639073D02*
X150460286Y-58515264D01*
X150460286Y-58515264D02*
X150429333Y-58453359D01*
X150429333Y-58453359D02*
X150367428Y-58391454D01*
X150367428Y-58391454D02*
X150274571Y-58360502D01*
X150274571Y-58360502D02*
X150212667Y-58360502D01*
X150212667Y-58360502D02*
X150119809Y-58391454D01*
X150119809Y-58391454D02*
X150088857Y-58422407D01*
X149469809Y-59010502D02*
X149841238Y-59010502D01*
X149655524Y-59010502D02*
X149655524Y-58360502D01*
X149655524Y-58360502D02*
X149717428Y-58453359D01*
X149717428Y-58453359D02*
X149779333Y-58515264D01*
X149779333Y-58515264D02*
X149841238Y-58546216D01*
X148850761Y-59010502D02*
X149222190Y-59010502D01*
X149036476Y-59010502D02*
X149036476Y-58360502D01*
X149036476Y-58360502D02*
X149098380Y-58453359D01*
X149098380Y-58453359D02*
X149160285Y-58515264D01*
X149160285Y-58515264D02*
X149222190Y-58546216D01*
X163943333Y-56490502D02*
X164160000Y-56180978D01*
X164314762Y-56490502D02*
X164314762Y-55840502D01*
X164314762Y-55840502D02*
X164067143Y-55840502D01*
X164067143Y-55840502D02*
X164005238Y-55871454D01*
X164005238Y-55871454D02*
X163974285Y-55902407D01*
X163974285Y-55902407D02*
X163943333Y-55964311D01*
X163943333Y-55964311D02*
X163943333Y-56057169D01*
X163943333Y-56057169D02*
X163974285Y-56119073D01*
X163974285Y-56119073D02*
X164005238Y-56150026D01*
X164005238Y-56150026D02*
X164067143Y-56180978D01*
X164067143Y-56180978D02*
X164314762Y-56180978D01*
X163355238Y-55840502D02*
X163664762Y-55840502D01*
X163664762Y-55840502D02*
X163695714Y-56150026D01*
X163695714Y-56150026D02*
X163664762Y-56119073D01*
X163664762Y-56119073D02*
X163602857Y-56088121D01*
X163602857Y-56088121D02*
X163448095Y-56088121D01*
X163448095Y-56088121D02*
X163386190Y-56119073D01*
X163386190Y-56119073D02*
X163355238Y-56150026D01*
X163355238Y-56150026D02*
X163324285Y-56211930D01*
X163324285Y-56211930D02*
X163324285Y-56366692D01*
X163324285Y-56366692D02*
X163355238Y-56428597D01*
X163355238Y-56428597D02*
X163386190Y-56459550D01*
X163386190Y-56459550D02*
X163448095Y-56490502D01*
X163448095Y-56490502D02*
X163602857Y-56490502D01*
X163602857Y-56490502D02*
X163664762Y-56459550D01*
X163664762Y-56459550D02*
X163695714Y-56428597D01*
X157617857Y-60190502D02*
X157834524Y-59880978D01*
X157989286Y-60190502D02*
X157989286Y-59540502D01*
X157989286Y-59540502D02*
X157741667Y-59540502D01*
X157741667Y-59540502D02*
X157679762Y-59571454D01*
X157679762Y-59571454D02*
X157648809Y-59602407D01*
X157648809Y-59602407D02*
X157617857Y-59664311D01*
X157617857Y-59664311D02*
X157617857Y-59757169D01*
X157617857Y-59757169D02*
X157648809Y-59819073D01*
X157648809Y-59819073D02*
X157679762Y-59850026D01*
X157679762Y-59850026D02*
X157741667Y-59880978D01*
X157741667Y-59880978D02*
X157989286Y-59880978D01*
X156998809Y-60190502D02*
X157370238Y-60190502D01*
X157184524Y-60190502D02*
X157184524Y-59540502D01*
X157184524Y-59540502D02*
X157246428Y-59633359D01*
X157246428Y-59633359D02*
X157308333Y-59695264D01*
X157308333Y-59695264D02*
X157370238Y-59726216D01*
X156782142Y-59540502D02*
X156379761Y-59540502D01*
X156379761Y-59540502D02*
X156596428Y-59788121D01*
X156596428Y-59788121D02*
X156503571Y-59788121D01*
X156503571Y-59788121D02*
X156441666Y-59819073D01*
X156441666Y-59819073D02*
X156410714Y-59850026D01*
X156410714Y-59850026D02*
X156379761Y-59911930D01*
X156379761Y-59911930D02*
X156379761Y-60066692D01*
X156379761Y-60066692D02*
X156410714Y-60128597D01*
X156410714Y-60128597D02*
X156441666Y-60159550D01*
X156441666Y-60159550D02*
X156503571Y-60190502D01*
X156503571Y-60190502D02*
X156689285Y-60190502D01*
X156689285Y-60190502D02*
X156751190Y-60159550D01*
X156751190Y-60159550D02*
X156782142Y-60128597D01*
X169608333Y-60407502D02*
X169825000Y-60097978D01*
X169979762Y-60407502D02*
X169979762Y-59757502D01*
X169979762Y-59757502D02*
X169732143Y-59757502D01*
X169732143Y-59757502D02*
X169670238Y-59788454D01*
X169670238Y-59788454D02*
X169639285Y-59819407D01*
X169639285Y-59819407D02*
X169608333Y-59881311D01*
X169608333Y-59881311D02*
X169608333Y-59974169D01*
X169608333Y-59974169D02*
X169639285Y-60036073D01*
X169639285Y-60036073D02*
X169670238Y-60067026D01*
X169670238Y-60067026D02*
X169732143Y-60097978D01*
X169732143Y-60097978D02*
X169979762Y-60097978D01*
X169298809Y-60407502D02*
X169175000Y-60407502D01*
X169175000Y-60407502D02*
X169113095Y-60376550D01*
X169113095Y-60376550D02*
X169082143Y-60345597D01*
X169082143Y-60345597D02*
X169020238Y-60252740D01*
X169020238Y-60252740D02*
X168989285Y-60128930D01*
X168989285Y-60128930D02*
X168989285Y-59881311D01*
X168989285Y-59881311D02*
X169020238Y-59819407D01*
X169020238Y-59819407D02*
X169051190Y-59788454D01*
X169051190Y-59788454D02*
X169113095Y-59757502D01*
X169113095Y-59757502D02*
X169236904Y-59757502D01*
X169236904Y-59757502D02*
X169298809Y-59788454D01*
X169298809Y-59788454D02*
X169329762Y-59819407D01*
X169329762Y-59819407D02*
X169360714Y-59881311D01*
X169360714Y-59881311D02*
X169360714Y-60036073D01*
X169360714Y-60036073D02*
X169329762Y-60097978D01*
X169329762Y-60097978D02*
X169298809Y-60128930D01*
X169298809Y-60128930D02*
X169236904Y-60159883D01*
X169236904Y-60159883D02*
X169113095Y-60159883D01*
X169113095Y-60159883D02*
X169051190Y-60128930D01*
X169051190Y-60128930D02*
X169020238Y-60097978D01*
X169020238Y-60097978D02*
X168989285Y-60036073D01*
X159456857Y-55798597D02*
X159487809Y-55829550D01*
X159487809Y-55829550D02*
X159580667Y-55860502D01*
X159580667Y-55860502D02*
X159642571Y-55860502D01*
X159642571Y-55860502D02*
X159735428Y-55829550D01*
X159735428Y-55829550D02*
X159797333Y-55767645D01*
X159797333Y-55767645D02*
X159828286Y-55705740D01*
X159828286Y-55705740D02*
X159859238Y-55581930D01*
X159859238Y-55581930D02*
X159859238Y-55489073D01*
X159859238Y-55489073D02*
X159828286Y-55365264D01*
X159828286Y-55365264D02*
X159797333Y-55303359D01*
X159797333Y-55303359D02*
X159735428Y-55241454D01*
X159735428Y-55241454D02*
X159642571Y-55210502D01*
X159642571Y-55210502D02*
X159580667Y-55210502D01*
X159580667Y-55210502D02*
X159487809Y-55241454D01*
X159487809Y-55241454D02*
X159456857Y-55272407D01*
X158837809Y-55860502D02*
X159209238Y-55860502D01*
X159023524Y-55860502D02*
X159023524Y-55210502D01*
X159023524Y-55210502D02*
X159085428Y-55303359D01*
X159085428Y-55303359D02*
X159147333Y-55365264D01*
X159147333Y-55365264D02*
X159209238Y-55396216D01*
X158621142Y-55210502D02*
X158218761Y-55210502D01*
X158218761Y-55210502D02*
X158435428Y-55458121D01*
X158435428Y-55458121D02*
X158342571Y-55458121D01*
X158342571Y-55458121D02*
X158280666Y-55489073D01*
X158280666Y-55489073D02*
X158249714Y-55520026D01*
X158249714Y-55520026D02*
X158218761Y-55581930D01*
X158218761Y-55581930D02*
X158218761Y-55736692D01*
X158218761Y-55736692D02*
X158249714Y-55798597D01*
X158249714Y-55798597D02*
X158280666Y-55829550D01*
X158280666Y-55829550D02*
X158342571Y-55860502D01*
X158342571Y-55860502D02*
X158528285Y-55860502D01*
X158528285Y-55860502D02*
X158590190Y-55829550D01*
X158590190Y-55829550D02*
X158621142Y-55798597D01*
D12*
G04 #@! TO.C,J2*
X171750000Y-55165000D02*
X174650000Y-55165000D01*
X171750000Y-58065000D02*
X171750000Y-55165000D01*
X174650000Y-55165000D02*
X174650000Y-58065000D01*
X174650000Y-58065000D02*
X171750000Y-58065000D01*
G04 #@! TO.C,C12*
X157257836Y-56200000D02*
X157042164Y-56200000D01*
X157257836Y-56920000D02*
X157042164Y-56920000D01*
D13*
G04 #@! TO.C,IC2*
X152444000Y-56206500D02*
X155419000Y-56206500D01*
X152444000Y-58887500D02*
X152444000Y-56206500D01*
X155418000Y-56205500D02*
X155879000Y-56666500D01*
X155879000Y-56666500D02*
X155879000Y-58887500D01*
X155879000Y-58887500D02*
X152444000Y-58887500D01*
X155980000Y-56206500D02*
G75*
G02*
X155780000Y-56206500I-100000J0D01*
G01*
X155780000Y-56206500D02*
G75*
G02*
X155980000Y-56206500I100000J0D01*
G01*
D12*
G04 #@! TO.C,C14*
X157262836Y-57125000D02*
X157047164Y-57125000D01*
X157262836Y-57845000D02*
X157047164Y-57845000D01*
G04 #@! TO.C,C19*
X154100000Y-54837164D02*
X154100000Y-55052836D01*
X154820000Y-54837164D02*
X154820000Y-55052836D01*
G04 #@! TO.C,C16*
X153170000Y-54837164D02*
X153170000Y-55052836D01*
X153890000Y-54837164D02*
X153890000Y-55052836D01*
G04 #@! TO.C,C36*
X151097164Y-56900000D02*
X151312836Y-56900000D01*
X151097164Y-57620000D02*
X151312836Y-57620000D01*
D10*
G04 #@! TO.C,IC1*
X166400000Y-57450000D02*
X166400000Y-57450000D01*
X166500000Y-57450000D02*
X166500000Y-57450000D01*
X166400000Y-57450000D02*
G75*
G02*
X166500000Y-57450000I50000J0D01*
G01*
X166500000Y-57450000D02*
G75*
G02*
X166400000Y-57450000I-50000J0D01*
G01*
D12*
G04 #@! TO.C,C15*
X152225000Y-54837164D02*
X152225000Y-55052836D01*
X152945000Y-54837164D02*
X152945000Y-55052836D01*
G04 #@! TO.C,C13*
X157262836Y-55260000D02*
X157047164Y-55260000D01*
X157262836Y-55980000D02*
X157047164Y-55980000D01*
G04 #@! TD*
%LPC*%
D14*
G04 #@! TO.C,J3*
X160900000Y-54060000D03*
X161916000Y-59140000D03*
X159884000Y-59140000D03*
G04 #@! TD*
D15*
G04 #@! TO.C,J2*
X173200000Y-56615000D03*
G04 #@! TD*
D16*
G04 #@! TO.C,C7*
X165415000Y-55505000D03*
X164775000Y-55505000D03*
G04 #@! TD*
D17*
G04 #@! TO.C,R7*
X164780000Y-57612000D03*
X165420000Y-57612000D03*
G04 #@! TD*
G04 #@! TO.C,C9*
X167980000Y-54012000D03*
X168620000Y-54012000D03*
G04 #@! TD*
D18*
G04 #@! TO.C,C10*
X155851000Y-55320000D03*
X155851000Y-54680000D03*
G04 #@! TD*
D19*
G04 #@! TO.C,C12*
X156670000Y-56560000D03*
X157630000Y-56560000D03*
G04 #@! TD*
D20*
G04 #@! TO.C,IC2*
X155419000Y-56667500D03*
X155000000Y-56667500D03*
X154581000Y-56667500D03*
X154162000Y-56667500D03*
X153743000Y-56667500D03*
X153324000Y-56667500D03*
X152905000Y-56667500D03*
X155419000Y-57107500D03*
X155000000Y-57107500D03*
X154581000Y-57107500D03*
X154162000Y-57107500D03*
X153743000Y-57107500D03*
X153324000Y-57107500D03*
X152905000Y-57107500D03*
X155419000Y-57547500D03*
X155000000Y-57547500D03*
X154581000Y-57547500D03*
X154162000Y-57547500D03*
X153743000Y-57547500D03*
X153324000Y-57547500D03*
X152905000Y-57547500D03*
X155419000Y-57987500D03*
X155000000Y-57987500D03*
X154581000Y-57987500D03*
X154162000Y-57987500D03*
X153743000Y-57987500D03*
X153324000Y-57987500D03*
X152905000Y-57987500D03*
X155419000Y-58427500D03*
X155000000Y-58427500D03*
X154581000Y-58427500D03*
X154162000Y-58427500D03*
X153743000Y-58427500D03*
X153324000Y-58427500D03*
X152905000Y-58427500D03*
G04 #@! TD*
D19*
G04 #@! TO.C,C14*
X156675000Y-57485000D03*
X157635000Y-57485000D03*
G04 #@! TD*
D21*
G04 #@! TO.C,C19*
X154460000Y-55425000D03*
X154460000Y-54465000D03*
G04 #@! TD*
D17*
G04 #@! TO.C,C8*
X169980000Y-54012000D03*
X170620000Y-54012000D03*
G04 #@! TD*
D21*
G04 #@! TO.C,C16*
X153530000Y-55425000D03*
X153530000Y-54465000D03*
G04 #@! TD*
D22*
G04 #@! TO.C,C36*
X151685000Y-57260000D03*
X150725000Y-57260000D03*
G04 #@! TD*
D23*
G04 #@! TO.C,IC1*
X167337000Y-57450000D03*
X167337000Y-56950000D03*
X167337000Y-56450000D03*
X167337000Y-55950000D03*
D24*
X168000000Y-55788000D03*
X168500000Y-55788000D03*
X169000000Y-55788000D03*
D23*
X169663000Y-55950000D03*
X169663000Y-56450000D03*
X169663000Y-56950000D03*
X169663000Y-57450000D03*
D24*
X169000000Y-57612000D03*
X168500000Y-57612000D03*
X168000000Y-57612000D03*
G04 #@! TD*
D16*
G04 #@! TO.C,C37*
X154156000Y-59590000D03*
X153516000Y-59590000D03*
G04 #@! TD*
D25*
G04 #@! TO.C,L2*
X150565000Y-55105000D03*
X150565000Y-55745000D03*
G04 #@! TD*
D16*
G04 #@! TO.C,R12*
X155671000Y-59595000D03*
X155031000Y-59595000D03*
G04 #@! TD*
D21*
G04 #@! TO.C,C15*
X152585000Y-55425000D03*
X152585000Y-54465000D03*
G04 #@! TD*
D17*
G04 #@! TO.C,R6*
X164785000Y-56909500D03*
X165425000Y-56909500D03*
G04 #@! TD*
D25*
G04 #@! TO.C,L1*
X151595000Y-55105000D03*
X151595000Y-55745000D03*
G04 #@! TD*
D16*
G04 #@! TO.C,C11*
X151571000Y-58665000D03*
X150931000Y-58665000D03*
G04 #@! TD*
D17*
G04 #@! TO.C,R5*
X164780000Y-56209500D03*
X165420000Y-56209500D03*
G04 #@! TD*
G04 #@! TO.C,R13*
X156731000Y-59067500D03*
X157371000Y-59067500D03*
G04 #@! TD*
G04 #@! TO.C,R9*
X169160000Y-59312000D03*
X169800000Y-59312000D03*
G04 #@! TD*
D19*
G04 #@! TO.C,C13*
X156675000Y-55620000D03*
X157635000Y-55620000D03*
G04 #@! TD*
%LPD*%
M02*
