G04 #@! TF.GenerationSoftware,KiCad,Pcbnew,8.0.4*
G04 #@! TF.CreationDate,2025-02-12T17:32:24+01:00*
G04 #@! TF.ProjectId,Pfeil,50666569-6c2e-46b6-9963-61645f706362,rev?*
G04 #@! TF.SameCoordinates,Original*
G04 #@! TF.FileFunction,Copper,L2,Inr*
G04 #@! TF.FilePolarity,Positive*
%FSLAX46Y46*%
G04 Gerber Fmt 4.6, Leading zero omitted, Abs format (unit mm)*
G04 Created by KiCad (PCBNEW 8.0.4) date 2025-02-12 17:32:24*
%MOMM*%
%LPD*%
G01*
G04 APERTURE LIST*
G04 #@! TA.AperFunction,ViaPad*
%ADD10C,0.250000*%
G04 #@! TD*
G04 #@! TA.AperFunction,Conductor*
%ADD11C,0.127000*%
G04 #@! TD*
G04 #@! TA.AperFunction,Conductor*
%ADD12C,0.250000*%
G04 #@! TD*
G04 #@! TA.AperFunction,Conductor*
%ADD13C,0.200000*%
G04 #@! TD*
G04 APERTURE END LIST*
D10*
G04 #@! TO.N,GND*
X153743000Y-57107500D03*
X168956501Y-53453499D03*
X135000000Y-55750000D03*
X142900000Y-53995000D03*
X167300000Y-59300000D03*
X155000000Y-59200000D03*
X152905000Y-56667500D03*
X164000000Y-59000000D03*
X163000000Y-54500000D03*
X164000000Y-56500000D03*
X128000000Y-53000000D03*
X172000000Y-53000000D03*
X141115000Y-56510000D03*
X127250000Y-57212499D03*
X130000000Y-53000000D03*
X126000000Y-55000000D03*
X135000000Y-58500000D03*
X144430482Y-57119956D03*
X137750000Y-54750000D03*
X140195000Y-59505000D03*
X137750000Y-55500000D03*
X164000000Y-54500000D03*
X152010000Y-53930000D03*
X152901000Y-58411500D03*
X145000000Y-53000000D03*
X153600000Y-59200000D03*
X132250000Y-55250000D03*
X137000000Y-57500000D03*
X168365000Y-59395000D03*
X163000000Y-56500000D03*
X139000000Y-58200000D03*
X172000000Y-60000000D03*
X135750000Y-55750000D03*
X143000000Y-53000000D03*
X132250000Y-54500000D03*
X166315000Y-57775000D03*
X138395000Y-56500000D03*
X174000000Y-59000000D03*
X165975000Y-52920000D03*
X170620000Y-54665000D03*
X148000000Y-59000000D03*
X139805000Y-58150000D03*
X133500000Y-55750000D03*
X145791999Y-59206501D03*
X131000000Y-58500000D03*
X136500000Y-57000000D03*
X147000000Y-53000000D03*
X134250000Y-55750000D03*
X149000000Y-59000000D03*
X138250000Y-58200000D03*
X139810000Y-56500000D03*
X140430000Y-56495000D03*
X141750000Y-58050000D03*
X170900000Y-59700000D03*
X130000000Y-55000000D03*
X138920000Y-56115000D03*
X149000000Y-58000000D03*
X141760000Y-56510000D03*
X132750000Y-55750000D03*
X174000000Y-54000000D03*
X151261539Y-57662501D03*
X144423898Y-56450000D03*
X174000000Y-60000000D03*
X137875000Y-56075000D03*
X158200000Y-58400000D03*
X162500000Y-58500000D03*
X137450000Y-58055000D03*
X141860000Y-54090000D03*
X126000000Y-53000000D03*
X168825000Y-55275000D03*
X174000000Y-53000000D03*
X150900000Y-58312500D03*
X133000000Y-58500000D03*
G04 #@! TO.N,/SWDIO*
X161025000Y-58670000D03*
X142675000Y-58905000D03*
G04 #@! TO.N,/SWCLK*
X162260000Y-56295000D03*
X142675000Y-58550000D03*
G04 #@! TO.N,+3V3*
X166955000Y-53900000D03*
X171215000Y-56945000D03*
X159400000Y-55385000D03*
X154490000Y-55950000D03*
G04 #@! TO.N,VBUS*
X146069759Y-58560131D03*
X145125000Y-58895000D03*
G04 #@! TO.N,VDD*
X143400000Y-55600000D03*
X168410000Y-52676500D03*
X146200000Y-57300000D03*
X146120000Y-56835000D03*
X165250000Y-58595000D03*
X166377500Y-59722500D03*
X144773900Y-56450015D03*
X165660000Y-54590000D03*
X142330718Y-59265349D03*
X143025000Y-56445000D03*
G04 #@! TO.N,Net-(U1B-DEC4)*
X144771989Y-56098011D03*
X142700000Y-56800000D03*
G04 #@! TO.N,Net-(U1B-DEC5)*
X141909979Y-58650000D03*
X142700000Y-57850000D03*
G04 #@! TO.N,Net-(U1A-P0.00{slash}XL1)*
X145150000Y-56450000D03*
X146100000Y-56450000D03*
G04 #@! TO.N,/I2C_SCL*
X127750000Y-57650000D03*
X143725000Y-58895000D03*
X154581000Y-58800000D03*
X143725000Y-59836351D03*
X168600000Y-56600000D03*
X144420000Y-58900000D03*
X168228511Y-57057077D03*
G04 #@! TO.N,/ISDS_INT_01*
X145850000Y-57625000D03*
X170250000Y-56190000D03*
X148415000Y-57625000D03*
G04 #@! TO.N,/PADS_INT02*
X152100000Y-59490300D03*
X169100000Y-56500000D03*
X144426501Y-59273499D03*
G04 #@! TO.N,Net-(IC2-VBUSOUT)*
X154580000Y-57530000D03*
X151600000Y-58700000D03*
G04 #@! TO.N,Net-(IC2-PVDD)*
X152905000Y-57545000D03*
X155000000Y-57547500D03*
G04 #@! TO.N,Net-(IC2-VOUT1)*
X153331000Y-57100000D03*
X153231000Y-56170000D03*
G04 #@! TO.N,/3.0V*
X153321000Y-57550000D03*
X152496000Y-57235000D03*
G04 #@! TO.N,/VBAT*
X170945000Y-55730000D03*
X155419000Y-57987500D03*
G04 #@! TO.N,/RE*
X134645000Y-52870000D03*
X135645000Y-52870000D03*
X133645000Y-52870000D03*
G04 #@! TD*
D11*
G04 #@! TO.N,GND*
X169500390Y-57554610D02*
X169500390Y-55159043D01*
X168825000Y-55257433D02*
X169092389Y-54990044D01*
X168825000Y-55275000D02*
X168825000Y-55257433D01*
D12*
X152901000Y-58411500D02*
X152954475Y-58411500D01*
X153479776Y-56667500D02*
X152905000Y-56667500D01*
X127250000Y-56890000D02*
X127250000Y-57212499D01*
X153743000Y-57107500D02*
X153743000Y-56930724D01*
D13*
X140195000Y-58430000D02*
X140575000Y-58050000D01*
D11*
X151261539Y-57662501D02*
X150900000Y-58024040D01*
X169331391Y-54990044D02*
X169500390Y-55159043D01*
X167755000Y-59300000D02*
X167300000Y-59300000D01*
D13*
X142805000Y-54090000D02*
X142900000Y-53995000D01*
D11*
X170125957Y-55159043D02*
X170620000Y-54665000D01*
X169500390Y-57554610D02*
X167755000Y-59300000D01*
X150900000Y-58024040D02*
X150900000Y-58312500D01*
D12*
X153743000Y-57622975D02*
X153743000Y-57107500D01*
D11*
X167300000Y-58760000D02*
X167300000Y-59300000D01*
D12*
X127750000Y-56390000D02*
X127250000Y-56890000D01*
D13*
X140575000Y-58050000D02*
X141750000Y-58050000D01*
D11*
X169092389Y-54990044D02*
X169331391Y-54990044D01*
D13*
X140195000Y-59505000D02*
X140195000Y-58430000D01*
D12*
X127750000Y-55687499D02*
X127750000Y-56390000D01*
D11*
X166315000Y-57775000D02*
X167300000Y-58760000D01*
D12*
X152954475Y-58411500D02*
X153743000Y-57622975D01*
D11*
X169500390Y-55159043D02*
X170125957Y-55159043D01*
D13*
X141860000Y-54090000D02*
X142805000Y-54090000D01*
D12*
X153743000Y-56930724D02*
X153479776Y-56667500D01*
D11*
G04 #@! TO.N,/SWDIO*
X144075450Y-59778800D02*
X143201650Y-58905000D01*
X161025000Y-58670000D02*
X161025000Y-59195000D01*
X143201650Y-58905000D02*
X142675000Y-58905000D01*
X161025000Y-59195000D02*
X160441200Y-59778800D01*
X160441200Y-59778800D02*
X144075450Y-59778800D01*
G04 #@! TO.N,/SWCLK*
X143311500Y-57913500D02*
X142675000Y-58550000D01*
X149260000Y-57305000D02*
X148651500Y-57913500D01*
X148651500Y-57913500D02*
X143311500Y-57913500D01*
X150055000Y-52815000D02*
X149260000Y-53610000D01*
X162260000Y-54445000D02*
X160630000Y-52815000D01*
X160630000Y-52815000D02*
X150055000Y-52815000D01*
X162260000Y-56295000D02*
X162260000Y-54445000D01*
X149260000Y-53610000D02*
X149260000Y-57305000D01*
D13*
G04 #@! TO.N,+3V3*
X166955000Y-53900000D02*
X167750000Y-53105000D01*
D11*
X171215000Y-56945000D02*
X171290000Y-56870000D01*
D12*
X154490000Y-55950000D02*
X155055000Y-55385000D01*
D13*
X171085000Y-53105000D02*
X171290000Y-53310000D01*
D12*
X155055000Y-55385000D02*
X159400000Y-55385000D01*
D13*
X171290000Y-53310000D02*
X171290000Y-56870000D01*
X167750000Y-53105000D02*
X171085000Y-53105000D01*
G04 #@! TO.N,VDD*
X168410000Y-52676500D02*
X167573500Y-52676500D01*
D11*
X143025000Y-56445000D02*
X143025000Y-57116999D01*
X143025000Y-57116999D02*
X142330718Y-57811281D01*
D13*
X166377500Y-59722500D02*
X165250000Y-58595000D01*
D11*
X142330718Y-57811281D02*
X142330718Y-59265349D01*
D13*
X167573500Y-52676500D02*
X165660000Y-54590000D01*
D11*
G04 #@! TO.N,/PADS_INT02*
X166988500Y-56311500D02*
X168911500Y-56311500D01*
X157714700Y-59490300D02*
X160005000Y-57200000D01*
X166100000Y-57200000D02*
X166988500Y-56311500D01*
X152100000Y-59490300D02*
X157714700Y-59490300D01*
X160005000Y-57200000D02*
X166100000Y-57200000D01*
X168911500Y-56311500D02*
X169100000Y-56500000D01*
G04 #@! TD*
G04 #@! TA.AperFunction,Conductor*
G04 #@! TO.N,GND*
G36*
X132588039Y-52520185D02*
G01*
X132633794Y-52572989D01*
X132645000Y-52624500D01*
X132645000Y-55470000D01*
X137645000Y-55470000D01*
X137645000Y-52624500D01*
X137664685Y-52557461D01*
X137717489Y-52511706D01*
X137769000Y-52500500D01*
X149838206Y-52500500D01*
X149905245Y-52520185D01*
X149951000Y-52572989D01*
X149960944Y-52642147D01*
X149931919Y-52705703D01*
X149925887Y-52712181D01*
X149120967Y-53517100D01*
X149111528Y-53539889D01*
X149111528Y-53539890D01*
X149095999Y-53577379D01*
X149095999Y-53657055D01*
X149096000Y-53657064D01*
X149096000Y-57185706D01*
X149076315Y-57252745D01*
X149059681Y-57273387D01*
X148801803Y-57531264D01*
X148740480Y-57564749D01*
X148670788Y-57559765D01*
X148614855Y-57517893D01*
X148611020Y-57512474D01*
X148594281Y-57487423D01*
X148577577Y-57462423D01*
X148547028Y-57442011D01*
X148502988Y-57412583D01*
X148415000Y-57395082D01*
X148327011Y-57412583D01*
X148252423Y-57462423D01*
X148202583Y-57537011D01*
X148185082Y-57625002D01*
X148185082Y-57625500D01*
X148184775Y-57626544D01*
X148182700Y-57636978D01*
X148181766Y-57636792D01*
X148165397Y-57692539D01*
X148112593Y-57738294D01*
X148061082Y-57749500D01*
X146339008Y-57749500D01*
X146271969Y-57729815D01*
X146226214Y-57677011D01*
X146216270Y-57607853D01*
X146245295Y-57544297D01*
X146278567Y-57520305D01*
X146277831Y-57519203D01*
X146301888Y-57503127D01*
X146362577Y-57462577D01*
X146412417Y-57387986D01*
X146429918Y-57300000D01*
X146412417Y-57212014D01*
X146412416Y-57212012D01*
X146412416Y-57212011D01*
X146382589Y-57167373D01*
X146362577Y-57137423D01*
X146345769Y-57126192D01*
X146300965Y-57072578D01*
X146292259Y-57003253D01*
X146311559Y-56954201D01*
X146332417Y-56922986D01*
X146349918Y-56835000D01*
X146332417Y-56747014D01*
X146298614Y-56696425D01*
X146277736Y-56629749D01*
X146296220Y-56562369D01*
X146298594Y-56558672D01*
X146312417Y-56537986D01*
X146329918Y-56450000D01*
X146312417Y-56362014D01*
X146312416Y-56362013D01*
X146312416Y-56362011D01*
X146287439Y-56324632D01*
X146262577Y-56287423D01*
X146237371Y-56270581D01*
X146187988Y-56237583D01*
X146100000Y-56220082D01*
X146012011Y-56237583D01*
X145937423Y-56287423D01*
X145887583Y-56362011D01*
X145870082Y-56450000D01*
X145887583Y-56537988D01*
X145921385Y-56588575D01*
X145942263Y-56655253D01*
X145923779Y-56722633D01*
X145921385Y-56726357D01*
X145907583Y-56747011D01*
X145890082Y-56835000D01*
X145907583Y-56922988D01*
X145957423Y-56997577D01*
X145974229Y-57008807D01*
X146019034Y-57062420D01*
X146027740Y-57131745D01*
X146008440Y-57180798D01*
X145987583Y-57212012D01*
X145986063Y-57219654D01*
X145971022Y-57295273D01*
X145938638Y-57357184D01*
X145877923Y-57391758D01*
X145850848Y-57394913D01*
X145762011Y-57412583D01*
X145687423Y-57462423D01*
X145637583Y-57537011D01*
X145620082Y-57625002D01*
X145620082Y-57625500D01*
X145619775Y-57626544D01*
X145617700Y-57636978D01*
X145616766Y-57636792D01*
X145600397Y-57692539D01*
X145547593Y-57738294D01*
X145496082Y-57749500D01*
X143358564Y-57749500D01*
X143358556Y-57749499D01*
X143344122Y-57749499D01*
X143278878Y-57749499D01*
X143278875Y-57749499D01*
X143239670Y-57765738D01*
X143239671Y-57765739D01*
X143218602Y-57774466D01*
X143218599Y-57774468D01*
X143172466Y-57820602D01*
X143172465Y-57820603D01*
X143129321Y-57863746D01*
X143067998Y-57897231D01*
X142998306Y-57892245D01*
X142942373Y-57850373D01*
X142920024Y-57800255D01*
X142912417Y-57762013D01*
X142862576Y-57687422D01*
X142862222Y-57687068D01*
X142861696Y-57686105D01*
X142855792Y-57677269D01*
X142856582Y-57676740D01*
X142828737Y-57625745D01*
X142833721Y-57556053D01*
X142862220Y-57511708D01*
X143100457Y-57273472D01*
X143100460Y-57273470D01*
X143117898Y-57256032D01*
X143117899Y-57256032D01*
X143164033Y-57209898D01*
X143181645Y-57167379D01*
X143189001Y-57149621D01*
X143189001Y-57084377D01*
X143189001Y-57074388D01*
X143189000Y-57074374D01*
X143189000Y-56643061D01*
X143208685Y-56576022D01*
X143209864Y-56574220D01*
X143237417Y-56532986D01*
X143254918Y-56445000D01*
X143237417Y-56357014D01*
X143237416Y-56357013D01*
X143237416Y-56357011D01*
X143212439Y-56319632D01*
X143187577Y-56282423D01*
X143154899Y-56260588D01*
X143112988Y-56232583D01*
X143025000Y-56215082D01*
X142937011Y-56232583D01*
X142862423Y-56282423D01*
X142812583Y-56357011D01*
X142795082Y-56445002D01*
X142795082Y-56449404D01*
X142775397Y-56516443D01*
X142722593Y-56562198D01*
X142695273Y-56571021D01*
X142612014Y-56587582D01*
X142612013Y-56587582D01*
X142537423Y-56637423D01*
X142487583Y-56712011D01*
X142470082Y-56800000D01*
X142487583Y-56887988D01*
X142520616Y-56937423D01*
X142537423Y-56962577D01*
X142573632Y-56986771D01*
X142612013Y-57012417D01*
X142622730Y-57014549D01*
X142684641Y-57046933D01*
X142719215Y-57107649D01*
X142715476Y-57177418D01*
X142686220Y-57223847D01*
X142191687Y-57718379D01*
X142191684Y-57718383D01*
X142190973Y-57720100D01*
X142188737Y-57725500D01*
X142167231Y-57777418D01*
X142166717Y-57778660D01*
X142166717Y-57858336D01*
X142166718Y-57858345D01*
X142166718Y-58321903D01*
X142147033Y-58388942D01*
X142094229Y-58434697D01*
X142025071Y-58444641D01*
X142002975Y-58438580D01*
X141997965Y-58437583D01*
X141909979Y-58420082D01*
X141821990Y-58437583D01*
X141747402Y-58487423D01*
X141697562Y-58562011D01*
X141680061Y-58650000D01*
X141697562Y-58737988D01*
X141729945Y-58786450D01*
X141747402Y-58812577D01*
X141776897Y-58832285D01*
X141821990Y-58862416D01*
X141821992Y-58862416D01*
X141821993Y-58862417D01*
X141909979Y-58879918D01*
X141997965Y-58862417D01*
X141997966Y-58862416D01*
X142009943Y-58860034D01*
X142010317Y-58861917D01*
X142064730Y-58856065D01*
X142127210Y-58887338D01*
X142162865Y-58947425D01*
X142166718Y-58978096D01*
X142166718Y-59067286D01*
X142147033Y-59134325D01*
X142145821Y-59136176D01*
X142118301Y-59177362D01*
X142100800Y-59265349D01*
X142118301Y-59353337D01*
X142151026Y-59402311D01*
X142168141Y-59427926D01*
X142205350Y-59452788D01*
X142242729Y-59477765D01*
X142242731Y-59477765D01*
X142242732Y-59477766D01*
X142330718Y-59495267D01*
X142418704Y-59477766D01*
X142418705Y-59477765D01*
X142418706Y-59477765D01*
X142431221Y-59469402D01*
X142493295Y-59427926D01*
X142543135Y-59353335D01*
X142560636Y-59265349D01*
X142560635Y-59265347D01*
X142560636Y-59265346D01*
X142560636Y-59258918D01*
X142580321Y-59191879D01*
X142633125Y-59146124D01*
X142663464Y-59139523D01*
X142663022Y-59137300D01*
X142674998Y-59134917D01*
X142675000Y-59134918D01*
X142762986Y-59117417D01*
X142804172Y-59089896D01*
X142870849Y-59069020D01*
X142873062Y-59069000D01*
X143082357Y-59069000D01*
X143149396Y-59088685D01*
X143170038Y-59105319D01*
X143562777Y-59498058D01*
X143596262Y-59559381D01*
X143591278Y-59629073D01*
X143569115Y-59663557D01*
X143569208Y-59663620D01*
X143565731Y-59668823D01*
X143562777Y-59673420D01*
X143562423Y-59673773D01*
X143512583Y-59748362D01*
X143495082Y-59836351D01*
X143512583Y-59924339D01*
X143525995Y-59944410D01*
X143562423Y-59998928D01*
X143599632Y-60023790D01*
X143637011Y-60048767D01*
X143637013Y-60048767D01*
X143637014Y-60048768D01*
X143725000Y-60066269D01*
X143812986Y-60048768D01*
X143812987Y-60048767D01*
X143812988Y-60048767D01*
X143825503Y-60040404D01*
X143887577Y-59998928D01*
X143894066Y-59989215D01*
X143947678Y-59944410D01*
X144017002Y-59935701D01*
X144040079Y-59942254D01*
X144042828Y-59942801D01*
X144122506Y-59942801D01*
X144122514Y-59942800D01*
X160394136Y-59942800D01*
X160394144Y-59942801D01*
X160408578Y-59942801D01*
X160473822Y-59942801D01*
X160516443Y-59925145D01*
X160534099Y-59917833D01*
X160580233Y-59871699D01*
X160580233Y-59871698D01*
X160597673Y-59854258D01*
X160597674Y-59854256D01*
X161117897Y-59334033D01*
X161117899Y-59334033D01*
X161164033Y-59287899D01*
X161164034Y-59287895D01*
X161166337Y-59285593D01*
X161227660Y-59252108D01*
X161297352Y-59257092D01*
X161353286Y-59298963D01*
X161373793Y-59341180D01*
X161379439Y-59362251D01*
X161455245Y-59493550D01*
X161562450Y-59600755D01*
X161671226Y-59663557D01*
X161688308Y-59673420D01*
X161693749Y-59676561D01*
X161840194Y-59715800D01*
X161840196Y-59715800D01*
X161991804Y-59715800D01*
X161991806Y-59715800D01*
X162138251Y-59676561D01*
X162269550Y-59600755D01*
X162376755Y-59493550D01*
X162452561Y-59362251D01*
X162491800Y-59215806D01*
X162491800Y-59064194D01*
X162452561Y-58917749D01*
X162376755Y-58786450D01*
X162269550Y-58679245D01*
X162197113Y-58637423D01*
X162138252Y-58603439D01*
X162106756Y-58595000D01*
X165020082Y-58595000D01*
X165037583Y-58682988D01*
X165064124Y-58722708D01*
X165087423Y-58757577D01*
X165150914Y-58800000D01*
X165162014Y-58807417D01*
X165167990Y-58809892D01*
X165208224Y-58836774D01*
X166135724Y-59764274D01*
X166162602Y-59804498D01*
X166165081Y-59810483D01*
X166165082Y-59810485D01*
X166165083Y-59810486D01*
X166214923Y-59885077D01*
X166252132Y-59909939D01*
X166289511Y-59934916D01*
X166289513Y-59934916D01*
X166289514Y-59934917D01*
X166377500Y-59952418D01*
X166465486Y-59934917D01*
X166465487Y-59934916D01*
X166465488Y-59934916D01*
X166491054Y-59917833D01*
X166540077Y-59885077D01*
X166589917Y-59810486D01*
X166607418Y-59722500D01*
X166589917Y-59634514D01*
X166589916Y-59634513D01*
X166589916Y-59634511D01*
X166555628Y-59583197D01*
X166540077Y-59559923D01*
X166465486Y-59510083D01*
X166465485Y-59510082D01*
X166465483Y-59510081D01*
X166459498Y-59507602D01*
X166419274Y-59480724D01*
X165491774Y-58553224D01*
X165464892Y-58512990D01*
X165462417Y-58507014D01*
X165462415Y-58507011D01*
X165412577Y-58432423D01*
X165384885Y-58413920D01*
X165337988Y-58382583D01*
X165250000Y-58365082D01*
X165162011Y-58382583D01*
X165087423Y-58432423D01*
X165037583Y-58507011D01*
X165020082Y-58595000D01*
X162106756Y-58595000D01*
X162013758Y-58570082D01*
X161991806Y-58564200D01*
X161840194Y-58564200D01*
X161693747Y-58603439D01*
X161562450Y-58679245D01*
X161465307Y-58776388D01*
X161403984Y-58809872D01*
X161334292Y-58804888D01*
X161278359Y-58763016D01*
X161253942Y-58697551D01*
X161254918Y-58681955D01*
X161254918Y-58670002D01*
X161254918Y-58670000D01*
X161237417Y-58582014D01*
X161237416Y-58582013D01*
X161237416Y-58582011D01*
X161201360Y-58528051D01*
X161187577Y-58507423D01*
X161157645Y-58487423D01*
X161112988Y-58457583D01*
X161025000Y-58440082D01*
X160937011Y-58457583D01*
X160862423Y-58507423D01*
X160812583Y-58582011D01*
X160801562Y-58637423D01*
X160795082Y-58670000D01*
X160812583Y-58757986D01*
X160840102Y-58799171D01*
X160860980Y-58865847D01*
X160861000Y-58868061D01*
X160861000Y-59075707D01*
X160841315Y-59142746D01*
X160824685Y-59163383D01*
X160735961Y-59252108D01*
X160670726Y-59317343D01*
X160609403Y-59350827D01*
X160539711Y-59345843D01*
X160483778Y-59303971D01*
X160459361Y-59238507D01*
X160459800Y-59223785D01*
X160459800Y-59064196D01*
X160459800Y-59064194D01*
X160420561Y-58917749D01*
X160344755Y-58786450D01*
X160237550Y-58679245D01*
X160165113Y-58637423D01*
X160106252Y-58603439D01*
X159981758Y-58570082D01*
X159959806Y-58564200D01*
X159808194Y-58564200D01*
X159661747Y-58603439D01*
X159530450Y-58679245D01*
X159530447Y-58679247D01*
X159423247Y-58786447D01*
X159423245Y-58786450D01*
X159347439Y-58917747D01*
X159309973Y-59057576D01*
X159308200Y-59064194D01*
X159308200Y-59215806D01*
X159324833Y-59277883D01*
X159347439Y-59362252D01*
X159385861Y-59428799D01*
X159402334Y-59496699D01*
X159379482Y-59562727D01*
X159324561Y-59605917D01*
X159278474Y-59614800D01*
X158121492Y-59614800D01*
X158054453Y-59595115D01*
X158008698Y-59542311D01*
X157998754Y-59473153D01*
X158027779Y-59409597D01*
X158033811Y-59403119D01*
X158414208Y-59022723D01*
X160036613Y-57400319D01*
X160097936Y-57366834D01*
X160124294Y-57364000D01*
X166052936Y-57364000D01*
X166052944Y-57364001D01*
X166067378Y-57364001D01*
X166132622Y-57364001D01*
X166175243Y-57346345D01*
X166192899Y-57339033D01*
X166239033Y-57292899D01*
X166239033Y-57292898D01*
X166256473Y-57275458D01*
X166256473Y-57275456D01*
X167020112Y-56511819D01*
X167081435Y-56478334D01*
X167107793Y-56475500D01*
X168246082Y-56475500D01*
X168313121Y-56495185D01*
X168358876Y-56547989D01*
X168367589Y-56588044D01*
X168367700Y-56588023D01*
X168368924Y-56594178D01*
X168370082Y-56599500D01*
X168370082Y-56599998D01*
X168370082Y-56600000D01*
X168377316Y-56636369D01*
X168386755Y-56683825D01*
X168380526Y-56753417D01*
X168337663Y-56808594D01*
X168271773Y-56831837D01*
X168240946Y-56829632D01*
X168228513Y-56827159D01*
X168228511Y-56827159D01*
X168193316Y-56834159D01*
X168140522Y-56844660D01*
X168065934Y-56894500D01*
X168016094Y-56969088D01*
X167998593Y-57057077D01*
X168016094Y-57145065D01*
X168049320Y-57194790D01*
X168065934Y-57219654D01*
X168103143Y-57244516D01*
X168140522Y-57269493D01*
X168140524Y-57269493D01*
X168140525Y-57269494D01*
X168228511Y-57286995D01*
X168316497Y-57269494D01*
X168316498Y-57269493D01*
X168316499Y-57269493D01*
X168336644Y-57256032D01*
X168391088Y-57219654D01*
X168432674Y-57157416D01*
X168440927Y-57145065D01*
X168440927Y-57145064D01*
X168440928Y-57145063D01*
X168458429Y-57057077D01*
X168458428Y-57057075D01*
X168458429Y-57057074D01*
X168441756Y-56973252D01*
X168447983Y-56903660D01*
X168490847Y-56848483D01*
X168556736Y-56825239D01*
X168587558Y-56827443D01*
X168600000Y-56829918D01*
X168687986Y-56812417D01*
X168687987Y-56812416D01*
X168687988Y-56812416D01*
X168732875Y-56782423D01*
X168762577Y-56762577D01*
X168793848Y-56715775D01*
X168847460Y-56670971D01*
X168916785Y-56662264D01*
X168965838Y-56681563D01*
X169012014Y-56712417D01*
X169100000Y-56729918D01*
X169187986Y-56712417D01*
X169187987Y-56712416D01*
X169187988Y-56712416D01*
X169215574Y-56693983D01*
X169262577Y-56662577D01*
X169308280Y-56594178D01*
X169312416Y-56587988D01*
X169312416Y-56587987D01*
X169312417Y-56587986D01*
X169329918Y-56500000D01*
X169312417Y-56412014D01*
X169312416Y-56412013D01*
X169312416Y-56412011D01*
X169275665Y-56357011D01*
X169262577Y-56337423D01*
X169187986Y-56287583D01*
X169139401Y-56277918D01*
X169077493Y-56245535D01*
X169075914Y-56243983D01*
X169067974Y-56236043D01*
X169067972Y-56236040D01*
X169021932Y-56190000D01*
X170020082Y-56190000D01*
X170037583Y-56277988D01*
X170069366Y-56325553D01*
X170087423Y-56352577D01*
X170124632Y-56377439D01*
X170162011Y-56402416D01*
X170162013Y-56402416D01*
X170162014Y-56402417D01*
X170250000Y-56419918D01*
X170337986Y-56402417D01*
X170337987Y-56402416D01*
X170337988Y-56402416D01*
X170350503Y-56394053D01*
X170412577Y-56352577D01*
X170456111Y-56287423D01*
X170462416Y-56277988D01*
X170462416Y-56277987D01*
X170462417Y-56277986D01*
X170479918Y-56190000D01*
X170462417Y-56102014D01*
X170462416Y-56102013D01*
X170462416Y-56102011D01*
X170425432Y-56046662D01*
X170412577Y-56027423D01*
X170382645Y-56007423D01*
X170337988Y-55977583D01*
X170250000Y-55960082D01*
X170162011Y-55977583D01*
X170087423Y-56027423D01*
X170037583Y-56102011D01*
X170020082Y-56190000D01*
X169021932Y-56190000D01*
X169004399Y-56172467D01*
X168998443Y-56170000D01*
X168980136Y-56162417D01*
X168980134Y-56162416D01*
X168944124Y-56147499D01*
X168944122Y-56147499D01*
X168878878Y-56147499D01*
X168864444Y-56147499D01*
X168864436Y-56147500D01*
X167035564Y-56147500D01*
X167035556Y-56147499D01*
X167021122Y-56147499D01*
X166955879Y-56147499D01*
X166955878Y-56147499D01*
X166950239Y-56149835D01*
X166920569Y-56162125D01*
X166919864Y-56162417D01*
X166895601Y-56172466D01*
X166861516Y-56206552D01*
X166849467Y-56218601D01*
X166849466Y-56218602D01*
X166447352Y-56620717D01*
X166068388Y-56999681D01*
X166007065Y-57033166D01*
X165980707Y-57036000D01*
X160037621Y-57036000D01*
X159972378Y-57036000D01*
X159972376Y-57036000D01*
X159972374Y-57036001D01*
X159912106Y-57060964D01*
X159912098Y-57060969D01*
X157683088Y-59289981D01*
X157621765Y-59323466D01*
X157595407Y-59326300D01*
X152298062Y-59326300D01*
X152231023Y-59306615D01*
X152229172Y-59305403D01*
X152219534Y-59298963D01*
X152187986Y-59277883D01*
X152100000Y-59260382D01*
X152012011Y-59277883D01*
X151937423Y-59327723D01*
X151887583Y-59402311D01*
X151877082Y-59455105D01*
X151872576Y-59477765D01*
X151870082Y-59490302D01*
X151870082Y-59490800D01*
X151869775Y-59491844D01*
X151867700Y-59502278D01*
X151866766Y-59502092D01*
X151850397Y-59557839D01*
X151797593Y-59603594D01*
X151746082Y-59614800D01*
X144701646Y-59614800D01*
X144634607Y-59595115D01*
X144588852Y-59542311D01*
X144578908Y-59473153D01*
X144598544Y-59421909D01*
X144638917Y-59361487D01*
X144638917Y-59361486D01*
X144638918Y-59361485D01*
X144656419Y-59273499D01*
X144638918Y-59185513D01*
X144615707Y-59150776D01*
X144594829Y-59084100D01*
X144613312Y-59016720D01*
X144615708Y-59012993D01*
X144632416Y-58987988D01*
X144632416Y-58987987D01*
X144632417Y-58987986D01*
X144649918Y-58900000D01*
X144648923Y-58894998D01*
X144895081Y-58894998D01*
X144912582Y-58982986D01*
X144932247Y-59012416D01*
X144962423Y-59057577D01*
X144989557Y-59075707D01*
X145037011Y-59107416D01*
X145037013Y-59107416D01*
X145037014Y-59107417D01*
X145125000Y-59124918D01*
X145212986Y-59107417D01*
X145212987Y-59107416D01*
X145212988Y-59107416D01*
X145226780Y-59098200D01*
X145287577Y-59057577D01*
X145337417Y-58982986D01*
X145354918Y-58895000D01*
X145337417Y-58807014D01*
X145337416Y-58807012D01*
X145337416Y-58807011D01*
X145309988Y-58765964D01*
X145287577Y-58732423D01*
X145257028Y-58712011D01*
X145212988Y-58682583D01*
X145125000Y-58665082D01*
X145037011Y-58682583D01*
X144962423Y-58732423D01*
X144912582Y-58807013D01*
X144912582Y-58807014D01*
X144895081Y-58894998D01*
X144648923Y-58894998D01*
X144632417Y-58812014D01*
X144632416Y-58812013D01*
X144632416Y-58812011D01*
X144606046Y-58772547D01*
X144582577Y-58737423D01*
X144557713Y-58720809D01*
X144507988Y-58687583D01*
X144420000Y-58670082D01*
X144332011Y-58687583D01*
X144257423Y-58737423D01*
X144207582Y-58812013D01*
X144207582Y-58812014D01*
X144194614Y-58877211D01*
X144184189Y-58897139D01*
X144193619Y-58917788D01*
X144207582Y-58987985D01*
X144207582Y-58987986D01*
X144230793Y-59022723D01*
X144251671Y-59089400D01*
X144233187Y-59156781D01*
X144230793Y-59160504D01*
X144214085Y-59185509D01*
X144214084Y-59185512D01*
X144214084Y-59185513D01*
X144205708Y-59227622D01*
X144196583Y-59273499D01*
X144214791Y-59365040D01*
X144208562Y-59434631D01*
X144165699Y-59489808D01*
X144099809Y-59513052D01*
X144031812Y-59496984D01*
X144005492Y-59476911D01*
X143813729Y-59285148D01*
X143780244Y-59223825D01*
X143785228Y-59154133D01*
X143827100Y-59098200D01*
X143832520Y-59094365D01*
X143843789Y-59086834D01*
X143887577Y-59057577D01*
X143937417Y-58982986D01*
X143950385Y-58917787D01*
X143960809Y-58897859D01*
X143951379Y-58877211D01*
X143937417Y-58807014D01*
X143936919Y-58806269D01*
X143916953Y-58776388D01*
X143887577Y-58732423D01*
X143857028Y-58712011D01*
X143812988Y-58682583D01*
X143725000Y-58665082D01*
X143637011Y-58682583D01*
X143562423Y-58732423D01*
X143525633Y-58787481D01*
X143472019Y-58832285D01*
X143402694Y-58840991D01*
X143339667Y-58810835D01*
X143334851Y-58806269D01*
X143294551Y-58765969D01*
X143294549Y-58765967D01*
X143294545Y-58765965D01*
X143294543Y-58765964D01*
X143274292Y-58757576D01*
X143274292Y-58757575D01*
X143274289Y-58757575D01*
X143234274Y-58740999D01*
X143234272Y-58740999D01*
X143169028Y-58740999D01*
X143154594Y-58740999D01*
X143154586Y-58741000D01*
X143018020Y-58741000D01*
X142950981Y-58721315D01*
X142905226Y-58668511D01*
X142895282Y-58599353D01*
X142896399Y-58592826D01*
X142897077Y-58589417D01*
X142912391Y-58560131D01*
X145839841Y-58560131D01*
X145857342Y-58648119D01*
X145880642Y-58682988D01*
X145907182Y-58722708D01*
X145934558Y-58741000D01*
X145981770Y-58772547D01*
X145981772Y-58772547D01*
X145981773Y-58772548D01*
X146069759Y-58790049D01*
X146157745Y-58772548D01*
X146157746Y-58772547D01*
X146157747Y-58772547D01*
X146172011Y-58763016D01*
X146232336Y-58722708D01*
X146247509Y-58700000D01*
X151370082Y-58700000D01*
X151387583Y-58787988D01*
X151420182Y-58836774D01*
X151437423Y-58862577D01*
X151463376Y-58879918D01*
X151512011Y-58912416D01*
X151512013Y-58912416D01*
X151512014Y-58912417D01*
X151600000Y-58929918D01*
X151687986Y-58912417D01*
X151687987Y-58912416D01*
X151687988Y-58912416D01*
X151706569Y-58900000D01*
X151762577Y-58862577D01*
X151804390Y-58800000D01*
X154351082Y-58800000D01*
X154368583Y-58887988D01*
X154388497Y-58917790D01*
X154418423Y-58962577D01*
X154455632Y-58987439D01*
X154493011Y-59012416D01*
X154493013Y-59012416D01*
X154493014Y-59012417D01*
X154581000Y-59029918D01*
X154668986Y-59012417D01*
X154668987Y-59012416D01*
X154668988Y-59012416D01*
X154681503Y-59004053D01*
X154743577Y-58962577D01*
X154787301Y-58897139D01*
X154793416Y-58887988D01*
X154793416Y-58887987D01*
X154793417Y-58887986D01*
X154810918Y-58800000D01*
X154793417Y-58712014D01*
X154793416Y-58712013D01*
X154793416Y-58712011D01*
X154765399Y-58670082D01*
X154743577Y-58637423D01*
X154705550Y-58612014D01*
X154668988Y-58587583D01*
X154581000Y-58570082D01*
X154493011Y-58587583D01*
X154418423Y-58637423D01*
X154368583Y-58712011D01*
X154351082Y-58800000D01*
X151804390Y-58800000D01*
X151812417Y-58787986D01*
X151829918Y-58700000D01*
X151812417Y-58612014D01*
X151812416Y-58612013D01*
X151812416Y-58612011D01*
X151784399Y-58570082D01*
X151762577Y-58537423D01*
X151737713Y-58520809D01*
X151687988Y-58487583D01*
X151600000Y-58470082D01*
X151512011Y-58487583D01*
X151437423Y-58537423D01*
X151387583Y-58612011D01*
X151370082Y-58700000D01*
X146247509Y-58700000D01*
X146282176Y-58648117D01*
X146299677Y-58560131D01*
X146282176Y-58472145D01*
X146282175Y-58472144D01*
X146282175Y-58472142D01*
X146255635Y-58432423D01*
X146232336Y-58397554D01*
X146207472Y-58380940D01*
X146157747Y-58347714D01*
X146069759Y-58330213D01*
X145981770Y-58347714D01*
X145907182Y-58397554D01*
X145857342Y-58472142D01*
X145839841Y-58560131D01*
X142912391Y-58560131D01*
X142929453Y-58527504D01*
X142930957Y-58525972D01*
X143343112Y-58113819D01*
X143404435Y-58080334D01*
X143430793Y-58077500D01*
X148604436Y-58077500D01*
X148604444Y-58077501D01*
X148618878Y-58077501D01*
X148684122Y-58077501D01*
X148726743Y-58059845D01*
X148744399Y-58052533D01*
X148790533Y-58006399D01*
X148790533Y-58006398D01*
X148807973Y-57988958D01*
X148807974Y-57988956D01*
X149335457Y-57461473D01*
X149335460Y-57461471D01*
X149352898Y-57444033D01*
X149352899Y-57444033D01*
X149399033Y-57397899D01*
X149408725Y-57374500D01*
X149424001Y-57337622D01*
X149424001Y-57272378D01*
X149424001Y-57262389D01*
X149424000Y-57262375D01*
X149424000Y-57235000D01*
X152266082Y-57235000D01*
X152283583Y-57322988D01*
X152310988Y-57364001D01*
X152333423Y-57397577D01*
X152367104Y-57420082D01*
X152408011Y-57447416D01*
X152408013Y-57447416D01*
X152408014Y-57447417D01*
X152496000Y-57464918D01*
X152531326Y-57457891D01*
X152600914Y-57464117D01*
X152656092Y-57506979D01*
X152677133Y-57555317D01*
X152692582Y-57632985D01*
X152692582Y-57632986D01*
X152703951Y-57650000D01*
X152742423Y-57707577D01*
X152769256Y-57725506D01*
X152817011Y-57757416D01*
X152817013Y-57757416D01*
X152817014Y-57757417D01*
X152905000Y-57774918D01*
X152992986Y-57757417D01*
X153040368Y-57725757D01*
X153107044Y-57704880D01*
X153174424Y-57723364D01*
X153178149Y-57725758D01*
X153233011Y-57762416D01*
X153233013Y-57762416D01*
X153233014Y-57762417D01*
X153321000Y-57779918D01*
X153408986Y-57762417D01*
X153408987Y-57762416D01*
X153408988Y-57762416D01*
X153421503Y-57754053D01*
X153483577Y-57712577D01*
X153533417Y-57637986D01*
X153550918Y-57550000D01*
X153546940Y-57530000D01*
X154350082Y-57530000D01*
X154367583Y-57617988D01*
X154388974Y-57650000D01*
X154417423Y-57692577D01*
X154448403Y-57713277D01*
X154492011Y-57742416D01*
X154492013Y-57742416D01*
X154492014Y-57742417D01*
X154580000Y-57759918D01*
X154667986Y-57742417D01*
X154703957Y-57718382D01*
X154708013Y-57715672D01*
X154774690Y-57694793D01*
X154842071Y-57713277D01*
X154845784Y-57715664D01*
X154912014Y-57759917D01*
X155000000Y-57777418D01*
X155058368Y-57765808D01*
X155127958Y-57772035D01*
X155183135Y-57814898D01*
X155206380Y-57880787D01*
X155204176Y-57911615D01*
X155189082Y-57987499D01*
X155206583Y-58075488D01*
X155232196Y-58113819D01*
X155256423Y-58150077D01*
X155293632Y-58174939D01*
X155331011Y-58199916D01*
X155331013Y-58199916D01*
X155331014Y-58199917D01*
X155419000Y-58217418D01*
X155506986Y-58199917D01*
X155506987Y-58199916D01*
X155506988Y-58199916D01*
X155519503Y-58191553D01*
X155581577Y-58150077D01*
X155630071Y-58077501D01*
X155631416Y-58075488D01*
X155631416Y-58075487D01*
X155631417Y-58075486D01*
X155648918Y-57987500D01*
X155631417Y-57899514D01*
X155631416Y-57899513D01*
X155631416Y-57899511D01*
X155594259Y-57843903D01*
X155581577Y-57824923D01*
X155544659Y-57800255D01*
X155506988Y-57775083D01*
X155430729Y-57759915D01*
X155419000Y-57757582D01*
X155418999Y-57757582D01*
X155360631Y-57769192D01*
X155291040Y-57762963D01*
X155235863Y-57720100D01*
X155212619Y-57654210D01*
X155214823Y-57623386D01*
X155229918Y-57547500D01*
X155212417Y-57459514D01*
X155212416Y-57459513D01*
X155212416Y-57459511D01*
X155181059Y-57412583D01*
X155162577Y-57384923D01*
X155131265Y-57364001D01*
X155087988Y-57335083D01*
X155000000Y-57317582D01*
X154912014Y-57335083D01*
X154912013Y-57335083D01*
X154912010Y-57335084D01*
X154871985Y-57361828D01*
X154805308Y-57382706D01*
X154737928Y-57364221D01*
X154734204Y-57361828D01*
X154667988Y-57317583D01*
X154580000Y-57300082D01*
X154492011Y-57317583D01*
X154417423Y-57367423D01*
X154367583Y-57442011D01*
X154350082Y-57530000D01*
X153546940Y-57530000D01*
X153533417Y-57462014D01*
X153533416Y-57462013D01*
X153533416Y-57462011D01*
X153492898Y-57401373D01*
X153472020Y-57334696D01*
X153490504Y-57267316D01*
X153492899Y-57263590D01*
X153493574Y-57262578D01*
X153493577Y-57262577D01*
X153543417Y-57187986D01*
X153560918Y-57100000D01*
X153543417Y-57012014D01*
X153543416Y-57012013D01*
X153543416Y-57012011D01*
X153510384Y-56962577D01*
X153493577Y-56937423D01*
X153468713Y-56920809D01*
X153418988Y-56887583D01*
X153331000Y-56870082D01*
X153243011Y-56887583D01*
X153168423Y-56937423D01*
X153118583Y-57012011D01*
X153108557Y-57062420D01*
X153106177Y-57074388D01*
X153101082Y-57100002D01*
X153117499Y-57182538D01*
X153111272Y-57252130D01*
X153068408Y-57307307D01*
X153002519Y-57330551D01*
X152971693Y-57328347D01*
X152905000Y-57315082D01*
X152869672Y-57322108D01*
X152800082Y-57315880D01*
X152744905Y-57273017D01*
X152723865Y-57224681D01*
X152708417Y-57147014D01*
X152707113Y-57145063D01*
X152682065Y-57107576D01*
X152658577Y-57072423D01*
X152621153Y-57047417D01*
X152583988Y-57022583D01*
X152496000Y-57005082D01*
X152408011Y-57022583D01*
X152333423Y-57072423D01*
X152283583Y-57147011D01*
X152266082Y-57235000D01*
X149424000Y-57235000D01*
X149424000Y-56170000D01*
X153001082Y-56170000D01*
X153018583Y-56257988D01*
X153043315Y-56295000D01*
X153068423Y-56332577D01*
X153098354Y-56352576D01*
X153143011Y-56382416D01*
X153143013Y-56382416D01*
X153143014Y-56382417D01*
X153231000Y-56399918D01*
X153318986Y-56382417D01*
X153318987Y-56382416D01*
X153318988Y-56382416D01*
X153331503Y-56374053D01*
X153393577Y-56332577D01*
X153435053Y-56270503D01*
X153443416Y-56257988D01*
X153443416Y-56257987D01*
X153443417Y-56257986D01*
X153460918Y-56170000D01*
X153443417Y-56082014D01*
X153443416Y-56082013D01*
X153443416Y-56082011D01*
X153407158Y-56027749D01*
X153393577Y-56007423D01*
X153359146Y-55984417D01*
X153318988Y-55957583D01*
X153280864Y-55950000D01*
X154260082Y-55950000D01*
X154262087Y-55960082D01*
X154262116Y-55960224D01*
X154264499Y-55984417D01*
X154264499Y-55994853D01*
X154264500Y-55994858D01*
X154268491Y-56004494D01*
X154275546Y-56027749D01*
X154277582Y-56037982D01*
X154277583Y-56037986D01*
X154277584Y-56037987D01*
X154283380Y-56046662D01*
X154294836Y-56068094D01*
X154298829Y-56077733D01*
X154298830Y-56077735D01*
X154306201Y-56085106D01*
X154321622Y-56103896D01*
X154327422Y-56112576D01*
X154336099Y-56118374D01*
X154354889Y-56133794D01*
X154362265Y-56141170D01*
X154371906Y-56145163D01*
X154393334Y-56156617D01*
X154402014Y-56162417D01*
X154407592Y-56163526D01*
X154412244Y-56164452D01*
X154435501Y-56171506D01*
X154445145Y-56175501D01*
X154455582Y-56175501D01*
X154479774Y-56177884D01*
X154489999Y-56179918D01*
X154490000Y-56179918D01*
X154490001Y-56179918D01*
X154500226Y-56177884D01*
X154524418Y-56175501D01*
X154534855Y-56175501D01*
X154544488Y-56171510D01*
X154567755Y-56164451D01*
X154577986Y-56162417D01*
X154586666Y-56156616D01*
X154608093Y-56145163D01*
X154617735Y-56141170D01*
X154625110Y-56133794D01*
X154643900Y-56118374D01*
X154652577Y-56112577D01*
X154658377Y-56103894D01*
X154673792Y-56085111D01*
X155112086Y-55646819D01*
X155173409Y-55613334D01*
X155199767Y-55610500D01*
X159365577Y-55610500D01*
X159389769Y-55612883D01*
X159399999Y-55614918D01*
X159400000Y-55614918D01*
X159400001Y-55614918D01*
X159410231Y-55612883D01*
X159434423Y-55610500D01*
X159444854Y-55610500D01*
X159444855Y-55610500D01*
X159454485Y-55606510D01*
X159477752Y-55599452D01*
X159487986Y-55597417D01*
X159496659Y-55591621D01*
X159518095Y-55580162D01*
X159527736Y-55576170D01*
X159535113Y-55568792D01*
X159553903Y-55553372D01*
X159562577Y-55547577D01*
X159568372Y-55538903D01*
X159583792Y-55520113D01*
X159591170Y-55512736D01*
X159595162Y-55503095D01*
X159606623Y-55481656D01*
X159612417Y-55472986D01*
X159614452Y-55462752D01*
X159621511Y-55439485D01*
X159625499Y-55429857D01*
X159625500Y-55429855D01*
X159625500Y-55419422D01*
X159627883Y-55395229D01*
X159629918Y-55384999D01*
X159627882Y-55374762D01*
X159625500Y-55350574D01*
X159625500Y-55340147D01*
X159625500Y-55340145D01*
X159621508Y-55330507D01*
X159614451Y-55307241D01*
X159612417Y-55297014D01*
X159606620Y-55288338D01*
X159595162Y-55266901D01*
X159593689Y-55263346D01*
X159591170Y-55257264D01*
X159583796Y-55249890D01*
X159568374Y-55231098D01*
X159562578Y-55222424D01*
X159553901Y-55216626D01*
X159535112Y-55201206D01*
X159527736Y-55193830D01*
X159527735Y-55193829D01*
X159527734Y-55193828D01*
X159518095Y-55189836D01*
X159496661Y-55178379D01*
X159487988Y-55172584D01*
X159487981Y-55172581D01*
X159477746Y-55170545D01*
X159454495Y-55163492D01*
X159444855Y-55159500D01*
X159434423Y-55159500D01*
X159410231Y-55157117D01*
X159400001Y-55155082D01*
X159399999Y-55155082D01*
X159389769Y-55157117D01*
X159365577Y-55159500D01*
X155114297Y-55159500D01*
X155114289Y-55159499D01*
X155099855Y-55159499D01*
X155010146Y-55159499D01*
X155010145Y-55159499D01*
X155010141Y-55159500D01*
X154978560Y-55172582D01*
X154978559Y-55172583D01*
X154927263Y-55193830D01*
X154927262Y-55193831D01*
X154863829Y-55257265D01*
X154354891Y-55766202D01*
X154336106Y-55781619D01*
X154327424Y-55787420D01*
X154327422Y-55787422D01*
X154321621Y-55796104D01*
X154306209Y-55814885D01*
X154298831Y-55822263D01*
X154298829Y-55822266D01*
X154294835Y-55831908D01*
X154283385Y-55853330D01*
X154277583Y-55862014D01*
X154277582Y-55862016D01*
X154275546Y-55872251D01*
X154268494Y-55895499D01*
X154264499Y-55905145D01*
X154264499Y-55915579D01*
X154262117Y-55939767D01*
X154261590Y-55942416D01*
X154260082Y-55950000D01*
X153280864Y-55950000D01*
X153231000Y-55940082D01*
X153143011Y-55957583D01*
X153068423Y-56007423D01*
X153018583Y-56082011D01*
X153001082Y-56170000D01*
X149424000Y-56170000D01*
X149424000Y-53729293D01*
X149443685Y-53662254D01*
X149460319Y-53641612D01*
X150086612Y-53015319D01*
X150147935Y-52981834D01*
X150174293Y-52979000D01*
X160510707Y-52979000D01*
X160577746Y-52998685D01*
X160598388Y-53015319D01*
X160864033Y-53280964D01*
X160897518Y-53342287D01*
X160892534Y-53411979D01*
X160850662Y-53467912D01*
X160808445Y-53488419D01*
X160778932Y-53496327D01*
X160677747Y-53523439D01*
X160546450Y-53599245D01*
X160546447Y-53599247D01*
X160439247Y-53706447D01*
X160439245Y-53706450D01*
X160363439Y-53837747D01*
X160324200Y-53984194D01*
X160324200Y-54135805D01*
X160363439Y-54282252D01*
X160401342Y-54347900D01*
X160439245Y-54413550D01*
X160546450Y-54520755D01*
X160677749Y-54596561D01*
X160824194Y-54635800D01*
X160824196Y-54635800D01*
X160975804Y-54635800D01*
X160975806Y-54635800D01*
X161122251Y-54596561D01*
X161253550Y-54520755D01*
X161360755Y-54413550D01*
X161436561Y-54282251D01*
X161471581Y-54151551D01*
X161507943Y-54091894D01*
X161570790Y-54061364D01*
X161640165Y-54069658D01*
X161679035Y-54095966D01*
X162059681Y-54476612D01*
X162093166Y-54537935D01*
X162096000Y-54564293D01*
X162096000Y-56096937D01*
X162076315Y-56163976D01*
X162075103Y-56165827D01*
X162047583Y-56207013D01*
X162030082Y-56295000D01*
X162047583Y-56382988D01*
X162072259Y-56419917D01*
X162097423Y-56457577D01*
X162124247Y-56475500D01*
X162172011Y-56507416D01*
X162172013Y-56507416D01*
X162172014Y-56507417D01*
X162260000Y-56524918D01*
X162347986Y-56507417D01*
X162347987Y-56507416D01*
X162347988Y-56507416D01*
X162360503Y-56499053D01*
X162422577Y-56457577D01*
X162472417Y-56382986D01*
X162489918Y-56295000D01*
X162472417Y-56207014D01*
X162444896Y-56165826D01*
X162424020Y-56099149D01*
X162424000Y-56096937D01*
X162424000Y-54492064D01*
X162424001Y-54492055D01*
X162424001Y-54412379D01*
X162424001Y-54412378D01*
X162399033Y-54352102D01*
X162399033Y-54352101D01*
X162352899Y-54305967D01*
X162345834Y-54298902D01*
X162345827Y-54298896D01*
X160786474Y-52739543D01*
X160786472Y-52739540D01*
X160759113Y-52712181D01*
X160725628Y-52650858D01*
X160730612Y-52581166D01*
X160772484Y-52525233D01*
X160837948Y-52500816D01*
X160846794Y-52500500D01*
X167166588Y-52500500D01*
X167233627Y-52520185D01*
X167279382Y-52572989D01*
X167289326Y-52642147D01*
X167260301Y-52705703D01*
X167254269Y-52712181D01*
X165618223Y-54348225D01*
X165577998Y-54375104D01*
X165572013Y-54377583D01*
X165497423Y-54427423D01*
X165447583Y-54502011D01*
X165430082Y-54590000D01*
X165447583Y-54677988D01*
X165480809Y-54727713D01*
X165497423Y-54752577D01*
X165534632Y-54777439D01*
X165572011Y-54802416D01*
X165572013Y-54802416D01*
X165572014Y-54802417D01*
X165660000Y-54819918D01*
X165747986Y-54802417D01*
X165747987Y-54802416D01*
X165747988Y-54802416D01*
X165760503Y-54794053D01*
X165822577Y-54752577D01*
X165872417Y-54677986D01*
X165872418Y-54677980D01*
X165874894Y-54672004D01*
X165901773Y-54631775D01*
X166556829Y-53976719D01*
X166618150Y-53943236D01*
X166687842Y-53948220D01*
X166743775Y-53990092D01*
X166747609Y-53995510D01*
X166792422Y-54062576D01*
X166792423Y-54062577D01*
X166810942Y-54074951D01*
X166867011Y-54112416D01*
X166867013Y-54112416D01*
X166867014Y-54112417D01*
X166955000Y-54129918D01*
X167042986Y-54112417D01*
X167042987Y-54112416D01*
X167042988Y-54112416D01*
X167055503Y-54104053D01*
X167117577Y-54062577D01*
X167167417Y-53987986D01*
X167167418Y-53987980D01*
X167169894Y-53982004D01*
X167196773Y-53941775D01*
X167796731Y-53341819D01*
X167858054Y-53308334D01*
X167884412Y-53305500D01*
X170950588Y-53305500D01*
X171017627Y-53325185D01*
X171038269Y-53341819D01*
X171053181Y-53356731D01*
X171086666Y-53418054D01*
X171089500Y-53444412D01*
X171089500Y-55377730D01*
X171069815Y-55444769D01*
X171017011Y-55490524D01*
X170957213Y-55499122D01*
X170957213Y-55500082D01*
X170950538Y-55500082D01*
X170947853Y-55500468D01*
X170945599Y-55500082D01*
X170945003Y-55500082D01*
X170945001Y-55500082D01*
X170945000Y-55500082D01*
X170901007Y-55508832D01*
X170857011Y-55517583D01*
X170782423Y-55567423D01*
X170732583Y-55642011D01*
X170715082Y-55730000D01*
X170732583Y-55817988D01*
X170762003Y-55862016D01*
X170782423Y-55892577D01*
X170816848Y-55915579D01*
X170857011Y-55942416D01*
X170857013Y-55942416D01*
X170857014Y-55942417D01*
X170945000Y-55959918D01*
X170945001Y-55959917D01*
X170945003Y-55959918D01*
X170957213Y-55959918D01*
X170957213Y-55962075D01*
X171010892Y-55966876D01*
X171066073Y-56009735D01*
X171089322Y-56075623D01*
X171089500Y-56082269D01*
X171089500Y-56693983D01*
X171069815Y-56761022D01*
X171053186Y-56781660D01*
X171052423Y-56782422D01*
X171002583Y-56857011D01*
X170985082Y-56945000D01*
X171002583Y-57032988D01*
X171030247Y-57074388D01*
X171052423Y-57107577D01*
X171088593Y-57131745D01*
X171127011Y-57157416D01*
X171127013Y-57157416D01*
X171127014Y-57157417D01*
X171215000Y-57174918D01*
X171302986Y-57157417D01*
X171302987Y-57157416D01*
X171302988Y-57157416D01*
X171332909Y-57137423D01*
X171377577Y-57107577D01*
X171427417Y-57032986D01*
X171427417Y-57032984D01*
X171429894Y-57027006D01*
X171456776Y-56986773D01*
X171459976Y-56983574D01*
X171490500Y-56909882D01*
X171490500Y-53270118D01*
X171459976Y-53196426D01*
X171403574Y-53140024D01*
X171198574Y-52935024D01*
X171124883Y-52904500D01*
X171124882Y-52904500D01*
X168745661Y-52904500D01*
X168678622Y-52884815D01*
X168632867Y-52832011D01*
X168622923Y-52762853D01*
X168624043Y-52756310D01*
X168630847Y-52722102D01*
X168639918Y-52676500D01*
X168639918Y-52676498D01*
X168639918Y-52676497D01*
X168634387Y-52648691D01*
X168640614Y-52579099D01*
X168683478Y-52523922D01*
X168749367Y-52500678D01*
X168756004Y-52500500D01*
X174375500Y-52500500D01*
X174442539Y-52520185D01*
X174488294Y-52572989D01*
X174499500Y-52624500D01*
X174499500Y-60375500D01*
X174479815Y-60442539D01*
X174427011Y-60488294D01*
X174375500Y-60499500D01*
X125624500Y-60499500D01*
X125557461Y-60479815D01*
X125511706Y-60427011D01*
X125500500Y-60375500D01*
X125500500Y-57650000D01*
X127520082Y-57650000D01*
X127537583Y-57737988D01*
X127564760Y-57778659D01*
X127587423Y-57812577D01*
X127624632Y-57837439D01*
X127662011Y-57862416D01*
X127662013Y-57862416D01*
X127662014Y-57862417D01*
X127750000Y-57879918D01*
X127837986Y-57862417D01*
X127837987Y-57862416D01*
X127837988Y-57862416D01*
X127865694Y-57843903D01*
X127912577Y-57812577D01*
X127954724Y-57749499D01*
X127962416Y-57737988D01*
X127962416Y-57737987D01*
X127962417Y-57737986D01*
X127979918Y-57650000D01*
X127962417Y-57562014D01*
X127962416Y-57562013D01*
X127962416Y-57562011D01*
X127932936Y-57517893D01*
X127912577Y-57487423D01*
X127878896Y-57464918D01*
X127837988Y-57437583D01*
X127750000Y-57420082D01*
X127662011Y-57437583D01*
X127587423Y-57487423D01*
X127537583Y-57562011D01*
X127520082Y-57650000D01*
X125500500Y-57650000D01*
X125500500Y-56098011D01*
X144542071Y-56098011D01*
X144557958Y-56177884D01*
X144559573Y-56186000D01*
X144573305Y-56206552D01*
X144594183Y-56273229D01*
X144575698Y-56340609D01*
X144573308Y-56344329D01*
X144561484Y-56362026D01*
X144561483Y-56362028D01*
X144561483Y-56362029D01*
X144544980Y-56445000D01*
X144543982Y-56450015D01*
X144561483Y-56538003D01*
X144594612Y-56587582D01*
X144611323Y-56612592D01*
X144646083Y-56635818D01*
X144685911Y-56662431D01*
X144685913Y-56662431D01*
X144685914Y-56662432D01*
X144773900Y-56679933D01*
X144861886Y-56662432D01*
X144893070Y-56641595D01*
X144959745Y-56620717D01*
X145027126Y-56639200D01*
X145030853Y-56641596D01*
X145062014Y-56662417D01*
X145150000Y-56679918D01*
X145237986Y-56662417D01*
X145237987Y-56662416D01*
X145237988Y-56662416D01*
X145266954Y-56643061D01*
X145312577Y-56612577D01*
X145362417Y-56537986D01*
X145379918Y-56450000D01*
X145362417Y-56362014D01*
X145362416Y-56362013D01*
X145362416Y-56362011D01*
X145337439Y-56324632D01*
X145312577Y-56287423D01*
X145287371Y-56270581D01*
X145237988Y-56237583D01*
X145202791Y-56230582D01*
X145150000Y-56220082D01*
X145149998Y-56220082D01*
X145149997Y-56220082D01*
X145137787Y-56220082D01*
X145137787Y-56218961D01*
X145080506Y-56213835D01*
X145025329Y-56170971D01*
X145002085Y-56105081D01*
X145001907Y-56098445D01*
X145001907Y-56098013D01*
X144999340Y-56085106D01*
X144984406Y-56010025D01*
X144984405Y-56010024D01*
X144984405Y-56010022D01*
X144951035Y-55960082D01*
X144934566Y-55935434D01*
X144904851Y-55915579D01*
X144859977Y-55885594D01*
X144771989Y-55868093D01*
X144684000Y-55885594D01*
X144609412Y-55935434D01*
X144559572Y-56010022D01*
X144545253Y-56082014D01*
X144542071Y-56098011D01*
X125500500Y-56098011D01*
X125500500Y-55600000D01*
X143170082Y-55600000D01*
X143187583Y-55687988D01*
X143215656Y-55730000D01*
X143237423Y-55762577D01*
X143274603Y-55787420D01*
X143312011Y-55812416D01*
X143312013Y-55812416D01*
X143312014Y-55812417D01*
X143400000Y-55829918D01*
X143487986Y-55812417D01*
X143487987Y-55812416D01*
X143487988Y-55812416D01*
X143512400Y-55796104D01*
X143562577Y-55762577D01*
X143612417Y-55687986D01*
X143629918Y-55600000D01*
X143612417Y-55512014D01*
X143612416Y-55512013D01*
X143612416Y-55512011D01*
X143584344Y-55470000D01*
X143562577Y-55437423D01*
X143535637Y-55419422D01*
X143487988Y-55387583D01*
X143400000Y-55370082D01*
X143312011Y-55387583D01*
X143237423Y-55437423D01*
X143187583Y-55512011D01*
X143170082Y-55600000D01*
X125500500Y-55600000D01*
X125500500Y-52624500D01*
X125520185Y-52557461D01*
X125572989Y-52511706D01*
X125624500Y-52500500D01*
X132521000Y-52500500D01*
X132588039Y-52520185D01*
G37*
G04 #@! TD.AperFunction*
G04 #@! TD*
M02*
